<?xml version="1.0" standalone="no"?>
<!DOCTYPE svg PUBLIC "-//W3C//DTD SVG 1.1//EN" "http://www.w3.org/Graphics/SVG/1.1/DTD/svg11.dtd" >
<svg>
<metadata>
Created by FontForge 20090622 at Fri Jun 17 13:02:29 2016
 By deploy user
Copyright 1990-1999 Bitstream Inc.  All rights reserved.
</metadata>
<defs>
<font id="GeometricSlab712BT-MediumA" horiz-adv-x="1024" >
  <font-face 
    font-family="GeoSlb712 Md BT"
    font-weight="400"
    font-stretch="normal"
    units-per-em="2048"
    panose-1="2 6 6 3 2 2 5 2 4 4"
    ascent="1556"
    descent="-492"
    x-height="999"
    cap-height="1421"
    bbox="-342 -483 2062 1972"
    underline-thickness="147"
    underline-position="-99"
    unicode-range="U+0020-U+F002"
  />
<missing-glyph horiz-adv-x="1229" 
d="M102 -362v1806h1024v-1806h-1024zM217 -248h795v1577h-795v-1577z" />
    <glyph glyph-name=".notdef" horiz-adv-x="1229" 
d="M102 -362v1806h1024v-1806h-1024zM217 -248h795v1577h-795v-1577z" />
    <glyph glyph-name=".null" horiz-adv-x="0" 
 />
    <glyph glyph-name="nonmarkingreturn" horiz-adv-x="508" 
 />
    <glyph glyph-name="space" unicode=" " horiz-adv-x="508" 
 />
    <glyph glyph-name="exclam" unicode="!" horiz-adv-x="563" 
d="M229 383l-43 590v448h191v-448l-43 -590h-105zM168 0v252h227v-252h-227z" />
    <glyph glyph-name="quotedbl" unicode="&#x22;" horiz-adv-x="614" 
d="M524 1436v-555h-139v555h139zM229 1436v-555h-139v555h139z" />
    <glyph glyph-name="numbersign" unicode="#" horiz-adv-x="1575" 
d="M969 858h-260l-93 -264h261zM924 1458l-162 -454h256l164 454h164l-160 -454h301l-51 -146h-303l-93 -262h322l-51 -147h-322l-162 -453h-165l161 453h-258l-162 -453h-165l159 453h-309l53 147h310l92 262h-330l51 146h332l162 454h166z" />
    <glyph glyph-name="dollar" unicode="$" horiz-adv-x="1014" 
d="M555 653v-503q112 13 170.5 74.5t58.5 164.5q0 102 -56.5 167t-172.5 97zM446 850v440q-106 -9 -163.5 -64t-57.5 -147q0 -89 49.5 -141t171.5 -88zM70 18v431h161v-130q45 -63 95 -101t120 -60v510l-110 37q-137 45 -208 135.5t-71 220.5q0 165 105 263.5t284 102.5v152
h109v-159q51 -12 94.5 -36t83.5 -63v94h148v-371h-150v103q-33 46 -75 77t-101 52v-451l100 -30q144 -44 220.5 -146.5t76.5 -251.5q0 -180 -106 -289t-291 -119v-167h-109v176q-57 10 -110.5 37t-104.5 71v-88h-161z" />
    <glyph glyph-name="percent" unicode="%" horiz-adv-x="1460" 
d="M1233 1446l-868 -1475h-140l869 1475h139zM330 750q59 0 96 77.5t37 206.5q0 131 -36.5 207t-96.5 76t-95.5 -75.5t-35.5 -207.5q0 -130 36 -207t95 -77zM1126 100q60 0 97 77t37 206q0 131 -36.5 208t-97.5 77q-60 0 -96.5 -77t-36.5 -208q0 -129 37 -206t96 -77z
M1126 -29q-126 0 -201 111t-75 301q0 191 75 302.5t201 111.5t201.5 -112t75.5 -302t-75.5 -301t-201.5 -111zM332 621q-126 0 -202.5 112t-76.5 301q0 190 76 301t203 111q125 0 200.5 -111t75.5 -301t-75.5 -301.5t-200.5 -111.5z" />
    <glyph glyph-name="ampersand" unicode="&#x26;" horiz-adv-x="1450" 
d="M504 741q-100 -36 -154.5 -108.5t-54.5 -167.5q0 -128 90 -219.5t217 -91.5q66 0 128 27t126 85zM580 952q120 36 172.5 82t52.5 117q0 64 -42 103.5t-112 39.5q-66 0 -105.5 -38.5t-39.5 -104.5q0 -40 17.5 -87.5t56.5 -111.5zM1053 0l-97 129q-90 -84 -179.5 -121
t-205.5 -37q-206 0 -342.5 132.5t-136.5 332.5q0 155 77.5 267t236.5 184q-40 85 -58 145t-18 107q0 136 89 221.5t232 85.5q153 0 241.5 -81.5t88.5 -221.5q0 -114 -72.5 -193t-228.5 -135l285 -383q39 80 67.5 162t46.5 168h287v-178h-156q-20 -75 -53 -149.5t-80 -151.5
l86 -113h203v-170h-313z" />
    <glyph glyph-name="quotesingle" unicode="'" horiz-adv-x="317" 
d="M229 1436v-555h-139v555h139z" />
    <glyph glyph-name="parenleft" unicode="(" horiz-adv-x="768" 
d="M735 -322q-250 81 -387 311.5t-137 573.5q0 342 137 572.5t387 310.5v-131q-167 -92 -247 -275.5t-80 -476.5q0 -295 79.5 -477.5t247.5 -273.5v-134z" />
    <glyph glyph-name="parenright" unicode=")" horiz-adv-x="768" 
d="M39 1446q251 -81 387.5 -311t136.5 -572t-137 -573.5t-387 -311.5v132q167 92 247.5 275.5t80.5 475.5q0 296 -80 479t-248 275v131z" />
    <glyph glyph-name="asterisk" unicode="*" horiz-adv-x="920" 
d="M754 1286l45 -139l-248 -64l164 -196l-119 -86l-137 215l-135 -215l-119 86l162 196l-248 64l47 139l235 -94l-16 254h147l-16 -254z" />
    <glyph glyph-name="plus" unicode="+" horiz-adv-x="1706" 
d="M924 1221v-541h528v-139h-528v-541h-142v541h-528v139h528v541h142z" />
    <glyph glyph-name="comma" unicode="," horiz-adv-x="508" 
d="M127 0v252h231v-252q0 -135 -58.5 -206t-176.5 -79v113q64 14 88.5 44.5t24.5 96.5v31h-109z" />
    <glyph glyph-name="hyphen" unicode="-" horiz-adv-x="668" 
d="M86 422v176h498v-176h-498z" />
    <glyph glyph-name="period" unicode="." horiz-adv-x="508" 
d="M135 0v252h238v-252h-238z" />
    <glyph glyph-name="slash" unicode="/" horiz-adv-x="627" 
d="M74 -190h-127l551 1636h127z" />
    <glyph glyph-name="zero" unicode="0" horiz-adv-x="1014" 
d="M508 141q112 0 178 149t66 406q0 289 -63.5 443.5t-180.5 154.5q-116 0 -181 -151t-65 -424q0 -272 65.5 -425t180.5 -153zM946 688q0 -334 -118 -525.5t-322 -191.5q-207 0 -321.5 193.5t-114.5 544.5q0 350 114.5 543.5t321.5 193.5q211 0 325.5 -197t114.5 -561z" />
    <glyph glyph-name="one" unicode="1" horiz-adv-x="1014" 
d="M240 0v176h184v1071h-184v174h374v-1245h177v-176h-551z" />
    <glyph glyph-name="two" unicode="2" horiz-adv-x="1014" 
d="M49 0v18q0 152 49.5 279t145.5 223q68 69 178.5 151.5t134.5 102.5q80 69 111.5 131t31.5 148q0 105 -57.5 168t-153.5 63q-120 0 -176.5 -93.5t-59.5 -295.5h-177q-1 10 -1.5 22.5t-0.5 34.5q0 235 115 364.5t321 129.5q177 0 285 -108.5t108 -286.5q0 -79 -23.5 -148
t-70.5 -127q-79 -96 -252 -217q-62 -43 -90 -65q-105 -84 -157 -161.5t-58 -156.5h483v326h176v-502h-862z" />
    <glyph glyph-name="three" unicode="3" horiz-adv-x="1014" 
d="M371 666v165h32q145 0 222 62t77 178q0 101 -56.5 160t-153.5 59q-112 0 -166 -72t-54 -221v-8h-176v35q0 196 105 309t286 113q184 0 295 -101.5t111 -267.5q0 -114 -55.5 -194.5t-165.5 -124.5q135 -49 197.5 -135.5t62.5 -225.5q0 -192 -122.5 -309t-324.5 -117
q-200 0 -314 129t-114 357v16h183v-6q0 -160 67.5 -250t186.5 -90q108 0 178.5 74.5t70.5 189.5q0 136 -82.5 206.5t-242.5 70.5q-8 0 -23.5 -1t-23.5 -1z" />
    <glyph glyph-name="four" unicode="4" horiz-adv-x="1014" 
d="M592 561l8 647l-401 -647h393zM432 0v176h160v227h-488q-6 52 -24 89t-51 69l557 885h176v-885h201v-158h-201v-227h137v-176h-467z" />
    <glyph glyph-name="five" unicode="5" horiz-adv-x="1014" 
d="M238 465v-8q0 -150 60 -231t171 -81q118 0 188 86t70 232q0 139 -66.5 216t-185.5 77q-79 0 -141.5 -41.5t-100.5 -120.5l-135 106l76 721h676v-383h-166v209h-383l-41 -407q63 46 126 68t132 22q185 0 294.5 -124.5t109.5 -334.5q0 -225 -124.5 -362.5t-328.5 -137.5
q-198 0 -308 122.5t-110 342.5v29h187z" />
    <glyph glyph-name="six" unicode="6" horiz-adv-x="1014" 
d="M762 1034q0 131 -54 195.5t-161 64.5q-137 0 -209 -129t-72 -377v-20q78 70 154 103.5t155 33.5q168 0 270.5 -126.5t102.5 -336.5q0 -211 -118.5 -341t-309.5 -130q-219 0 -333.5 179t-114.5 522q0 374 123.5 574t353.5 200q177 0 279 -101.5t102 -277.5v-33h-168z
M266 595q-1 -12 -1.5 -27t-0.5 -44q0 -180 71.5 -282.5t194.5 -102.5q109 0 177.5 83t68.5 218q0 142 -64 222.5t-175 80.5q-66 0 -136.5 -38t-134.5 -110z" />
    <glyph glyph-name="seven" unicode="7" horiz-adv-x="1014" 
d="M203 0v176h165q7 249 92.5 499t278.5 572h-491v-215h-162v389h862v-143q-189 -297 -283 -565t-94 -514v-23h152v-176h-520z" />
    <glyph glyph-name="eight" unicode="8" horiz-adv-x="1014" 
d="M252 406q0 -108 74 -183.5t180 -75.5q108 0 182 75t74 184q0 107 -74 181.5t-182 74.5q-107 0 -180.5 -75t-73.5 -181zM274 1065q0 -95 67.5 -162t164.5 -67q99 0 166 66.5t67 162.5t-67 162.5t-166 66.5q-98 0 -165 -66.5t-67 -162.5zM719 752q117 -43 178 -138t61 -233
q0 -179 -126 -294.5t-324 -115.5t-324.5 115.5t-126.5 294.5q0 138 61.5 233t178.5 138q-99 38 -154 123.5t-55 199.5q0 163 117 267t303 104q185 0 302.5 -104t117.5 -267q0 -114 -55 -199.5t-154 -123.5z" />
    <glyph glyph-name="nine" unicode="9" horiz-adv-x="1014" 
d="M743 823q2 14 2 28.5v43.5q0 180 -71 282.5t-195 102.5q-109 0 -178.5 -83.5t-69.5 -217.5q0 -142 65 -223.5t177 -81.5q65 0 135.5 39t134.5 110zM246 383q0 -130 53.5 -195t161.5 -65q137 0 208.5 129t71.5 377v20q-76 -68 -152.5 -101.5t-156.5 -33.5q-167 0 -270 126
t-103 335q0 211 119 341t309 130q220 0 334.5 -178t114.5 -520q0 -384 -125 -580.5t-369 -196.5q-168 0 -266 103t-98 280v29h168z" />
    <glyph glyph-name="colon" unicode=":" horiz-adv-x="555" 
d="M158 750v249h237v-249h-237zM158 0v252h237v-252h-237z" />
    <glyph glyph-name="semicolon" unicode=";" horiz-adv-x="555" 
d="M156 750v249h237v-249h-237zM160 0v252h231v-252q0 -135 -58.5 -206t-176.5 -79v113q64 14 88 44.5t24 96.5v31h-108z" />
    <glyph glyph-name="less" unicode="&#x3c;" horiz-adv-x="1706" 
d="M1442 1006l-969 -396l969 -393v-154l-1178 484v129l1178 483v-153z" />
    <glyph glyph-name="equal" unicode="=" horiz-adv-x="1706" 
d="M1452 481v-139h-1198v139h1198zM1452 879v-140h-1198v140h1198z" />
    <glyph glyph-name="greater" unicode="&#x3e;" horiz-adv-x="1706" 
d="M1442 676v-129l-1178 -484v154l971 393l-971 396v153z" />
    <glyph glyph-name="question" unicode="?" horiz-adv-x="958" 
d="M332 844q19 -6 37.5 -9.5t33.5 -3.5q130 0 202.5 63t72.5 175q0 96 -62.5 157.5t-160.5 61.5q-105 0 -165.5 -68t-60.5 -188v-22h-182v24q0 190 111 301t301 111q180 0 296.5 -107t116.5 -268q0 -168 -101.5 -272.5t-285.5 -124.5l-18 -271h-111zM299 0v252h227v-252
h-227z" />
    <glyph glyph-name="at" unicode="@" horiz-adv-x="2048" 
d="M1284 854l57 115h132l-146 -576q-4 -16 -6 -31t-2 -28q0 -46 25.5 -70t74.5 -24q48 0 102.5 26.5t106.5 75.5q80 76 125 186.5t45 233.5q0 259 -190.5 420t-499.5 161q-133 0 -246 -28t-211 -86q-191 -114 -296 -299.5t-105 -409.5q0 -177 61.5 -308t192.5 -230
q100 -77 236.5 -118.5t287.5 -41.5q169 0 328.5 49t292.5 141l55 -82q-148 -111 -314.5 -167t-349.5 -56q-190 0 -348 47t-280 140q-154 118 -230 274t-76 354q0 165 52 313t151 269q146 178 351.5 270t455.5 92q163 0 310 -45t253 -127q130 -100 197.5 -231t67.5 -283
q0 -175 -63.5 -315t-184.5 -236q-68 -54 -149.5 -83t-166.5 -29q-99 0 -149.5 39.5t-50.5 117.5v19q-55 -89 -129 -131.5t-172 -42.5q-153 0 -233.5 85t-80.5 247q0 235 138 394t339 159q85 0 145.5 -37.5t96.5 -112.5zM1190 475l59 236q-17 88 -68.5 136t-129.5 48
q-138 0 -232 -130t-94 -319q0 -105 48.5 -162t137.5 -57q97 0 174.5 69t104.5 179z" />
    <glyph glyph-name="A" unicode="A" horiz-adv-x="1294" 
d="M461 676h356l-176 528zM-57 0v184h163l371 1063h-184v174h711v-174h-175l367 -1063h154v-184h-533v184h172l-110 320h-480l-108 -320h160v-184h-508z" />
    <glyph glyph-name="B" unicode="B" horiz-adv-x="1225" 
d="M412 178h198q147 0 227.5 63t80.5 177q0 116 -87.5 178.5t-250.5 62.5h-168v-481zM412 825h149q142 0 214.5 51.5t72.5 153.5q0 106 -70.5 161.5t-204.5 55.5h-161v-422zM41 0v184h168v1063h-168v174h571q214 0 326.5 -92.5t112.5 -269.5q0 -109 -51 -181.5t-162 -121.5
q141 -41 215.5 -132.5t74.5 -222.5q0 -196 -124 -298.5t-365 -102.5h-598z" />
    <glyph glyph-name="C" unicode="C" horiz-adv-x="1540" 
d="M1227 965q-63 145 -171 218.5t-259 73.5q-227 0 -367.5 -150.5t-140.5 -395.5q0 -244 138 -396.5t353 -152.5q172 0 309.5 111.5t196.5 299.5l176 -104q-70 -233 -251 -365.5t-429 -132.5q-313 0 -512.5 206.5t-199.5 531.5q0 323 200.5 530t511.5 207q158 0 267.5 -49.5
t191.5 -157.5v182h174v-456h-188z" />
    <glyph glyph-name="D" unicode="D" horiz-adv-x="1464" 
d="M412 186h262q245 0 370 134.5t125 396.5q0 254 -122 392t-347 138h-288v-1061zM692 0h-657v184h174v1063h-174v174h657q334 0 518.5 -186.5t184.5 -523.5q0 -338 -184.5 -524.5t-518.5 -186.5z" />
    <glyph glyph-name="E" unicode="E" horiz-adv-x="1300" 
d="M1030 184v271h172v-455h-1161v184h168v1063h-168v174h1161v-422h-172v248h-618v-432h553v-170h-553v-461h618z" />
    <glyph glyph-name="F" unicode="F" horiz-adv-x="1157" 
d="M41 0v184h168v1063h-168v174h1079v-422h-170v248h-538v-432h475v-170h-475v-461h186v-184h-557z" />
    <glyph glyph-name="G" unicode="G" horiz-adv-x="1561" 
d="M1235 965q-63 145 -171.5 218.5t-260.5 73.5q-229 0 -371.5 -150.5t-142.5 -395.5q0 -252 144.5 -400.5t387.5 -148.5q188 0 305 93t134 257h-261v176h487q2 -11 2.5 -23.5t0.5 -35.5q0 -301 -190.5 -479.5t-510.5 -178.5q-316 0 -516 206.5t-200 531.5q0 323 202 530
t514 207q159 0 270.5 -50t190.5 -157v182h172v-456h-186z" />
    <glyph glyph-name="H" unicode="H" horiz-adv-x="1442" 
d="M41 0v184h168v1063h-168v174h547v-174h-176v-401h616v401h-174v174h547v-174h-168v-1063h168v-184h-547v184h174v492h-616v-492h176v-184h-547z" />
    <glyph glyph-name="I" unicode="I" horiz-adv-x="621" 
d="M582 1421v-174h-170v-1063h170v-184h-541v184h168v1063h-168v174h541z" />
    <glyph glyph-name="J" unicode="J" horiz-adv-x="616" 
d="M-66 -131q25 -8 48.5 -12t46.5 -4q101 0 140.5 53t39.5 272v1069h-168v174h541v-174h-170v-1149q0 -228 -82.5 -329t-266.5 -101q-39 0 -70 3t-59 10v188z" />
    <glyph glyph-name="K" unicode="K" horiz-adv-x="1237" 
d="M895 1247h-156v174h531v-174h-146l-460 -481l466 -582h168v-184h-557v184h142l-471 572zM412 184h170v-184h-541v184h168v1063h-168v174h541v-174h-170v-1063z" />
    <glyph glyph-name="L" unicode="L" horiz-adv-x="1208" 
d="M582 1421v-174h-170v-1063h512v482h172v-666h-1055v184h168v1063h-168v174h541z" />
    <glyph glyph-name="M" unicode="M" horiz-adv-x="1864" 
d="M393 1266v-1082h203v-184h-555v184h172v1063h-172v174h502l391 -1009l401 1009h488v-174h-174v-1063h174v-184h-557v184h172v1065l-508 -1249h-41z" />
    <glyph glyph-name="N" unicode="N" horiz-adv-x="1524" 
d="M391 1192v-1008h174v-184h-530v184h174v1063h-174v174h452l643 -1108v934h-174v174h562v-174h-205v-1247h-232z" />
    <glyph glyph-name="O" unicode="O" horiz-adv-x="1565" 
d="M1274 711q0 241 -138.5 392.5t-355.5 151.5q-213 0 -352 -152t-139 -392q0 -244 138 -396.5t353 -152.5q216 0 355 153t139 396zM782 1446q315 0 513 -206t198 -531t-199 -531.5t-512 -206.5t-512.5 206.5t-199.5 531.5q0 322 201 529.5t511 207.5z" />
    <glyph glyph-name="P" unicode="P" horiz-adv-x="1231" 
d="M412 715h170q194 0 276 62t82 204t-82 204t-276 62h-170v-532zM412 184h170v-184h-541v184h168v1063h-168v174h571q283 0 414 -105t131 -329q0 -227 -132.5 -334.5t-412.5 -107.5h-200v-361z" />
    <glyph glyph-name="Q" unicode="Q" horiz-adv-x="1565" 
d="M593 -6q-239 58 -381 252t-142 463q0 322 201.5 529.5t510.5 207.5q315 0 513 -206t198 -531q0 -286 -159.5 -485.5t-420.5 -239.5q103 -33 163.5 -46.5t101.5 -13.5q13 0 32.5 2.5t49.5 7.5l-58 -182q-10 -5 -21.5 -7.5t-27.5 -2.5q-112 0 -267.5 63.5t-203.5 63.5
q-38 0 -75.5 -13.5t-78.5 -41.5l-69 100q29 33 61 51.5t73 28.5zM1274 711q0 241 -138.5 392.5t-355.5 151.5q-213 0 -352 -152t-139 -392q0 -244 138 -396.5t353 -152.5q216 0 355 153t139 396z" />
    <glyph glyph-name="R" unicode="R" horiz-adv-x="1223" 
d="M412 840h161q168 0 246 48.5t78 151.5q0 114 -71.5 164.5t-237.5 50.5h-176v-415zM412 184h170v-184h-541v184h168v1063h-168v174h608q225 0 343 -92.5t118 -269.5q0 -141 -73 -234.5t-206 -122.5l242 -518h158v-184h-285l-321 684h-213v-500z" />
    <glyph glyph-name="S" unicode="S" horiz-adv-x="1124" 
d="M104 0v487h181v-127q54 -101 133.5 -153.5t177.5 -52.5q104 0 168.5 62t64.5 161q0 85 -47 146t-137 91l-252 84q-144 49 -217.5 140.5t-73.5 222.5q0 167 111.5 276t282.5 109q89 0 168.5 -30.5t142.5 -88.5v94h166v-407h-168v104q-61 74 -136 114t-155 40
q-96 0 -154.5 -53t-58.5 -140q0 -76 41 -122.5t137 -79.5l246 -86q156 -55 232.5 -154.5t76.5 -249.5q0 -189 -118.5 -302.5t-317.5 -113.5q-90 0 -167 29.5t-146 89.5v-90h-181z" />
    <glyph glyph-name="T" unicode="T" horiz-adv-x="1262" 
d="M731 1247v-1063h172v-184h-545v184h170v1063h-280v-377h-172v551h1108v-551h-170v377h-283z" />
    <glyph glyph-name="U" unicode="U" horiz-adv-x="1477" 
d="M199 1247h-174v174h557v-174h-172v-760q0 -168 73 -248.5t228 -80.5q157 0 233 80.5t76 248.5v760h-174v174h543v-174h-172v-659q0 -334 -118.5 -475.5t-391.5 -141.5q-272 0 -390 141t-118 476v659z" />
    <glyph glyph-name="V" unicode="V" horiz-adv-x="1270" 
d="M520 0l-426 1247h-164v174h527v-174h-150l336 -977l336 977h-166v174h526v-174h-178l-428 -1247h-213z" />
    <glyph glyph-name="W" unicode="W" horiz-adv-x="1849" 
d="M641 0h-188l-338 1247h-152v174h526v-174h-178l246 -952l231 952h-178v174h641v-174h-176l246 -952l231 952h-178v174h520v-174h-178l-309 -1247h-188l-301 1126z" />
    <glyph glyph-name="X" unicode="X" horiz-adv-x="1229" 
d="M-29 0v184h164l365 527l-353 536h-176v174h543v-174h-119l228 -352l233 352h-162v174h523v-174h-154l-336 -510l367 -553h170v-184h-570v184h154l-244 371l-246 -371h156v-184h-543z" />
    <glyph glyph-name="Y" unicode="Y" horiz-adv-x="1110" 
d="M59 1247h-172v174h566v-174h-154l268 -422l277 422h-178v174h555v-174h-174l-394 -596v-467h185v-184h-576v184h187v467z" />
    <glyph glyph-name="Z" unicode="Z" horiz-adv-x="1114" 
d="M43 0v180l723 1067h-512v-248h-170v422h934v-174l-725 -1067h584v266h172v-446h-1006z" />
    <glyph glyph-name="bracketleft" unicode="[" horiz-adv-x="768" 
d="M455 -156h284v-143h-473v1720h473v-141h-284v-1436z" />
    <glyph glyph-name="backslash" unicode="\" horiz-adv-x="627" 
d="M541 -190l-551 1636h127l551 -1636h-127z" />
    <glyph glyph-name="bracketright" unicode="]" horiz-adv-x="768" 
d="M313 1280h-284v141h473v-1720h-473v143h284v1436z" />
    <glyph glyph-name="asciicircum" unicode="^" horiz-adv-x="2048" 
d="M1116 1458l510 -557h-180l-422 420l-424 -420h-180l510 557h186z" />
    <glyph glyph-name="underscore" unicode="_" 
d="M1024 -340v-143h-1024v143h1024z" />
    <glyph glyph-name="grave" unicode="`" 
d="M655 1135h-120l-285 348h201z" />
    <glyph glyph-name="a" unicode="a" horiz-adv-x="1051" 
d="M705 279v73q-84 50 -142 70t-114 20q-87 0 -140 -40.5t-53 -106.5q0 -60 46 -99.5t118 -39.5q60 0 129.5 30t155.5 93zM705 0v94q-78 -63 -155 -93t-163 -30q-147 0 -237.5 88t-90.5 230q0 147 97.5 237t257.5 90q55 0 125.5 -17.5t158.5 -53.5v59q0 136 -51 199t-160 63
q-77 0 -135 -31t-106 -98l-174 45q48 116 159.5 179t270.5 63q200 0 288.5 -96t88.5 -320v-432h151v-176h-325z" />
    <glyph glyph-name="b" unicode="b" horiz-adv-x="1208" 
d="M651 150q138 0 216.5 90.5t78.5 248.5q0 159 -78.5 249.5t-216.5 90.5q-137 0 -216 -90.5t-79 -249.5q0 -153 82 -246t213 -93zM31 0v176h143v1079h-143v166h319v-571q85 79 166 114t174 35q202 0 326.5 -141t124.5 -373q0 -233 -124 -373.5t-327 -140.5q-92 0 -171.5 35
t-162.5 113v-119h-325z" />
    <glyph glyph-name="c" unicode="c" horiz-adv-x="1096" 
d="M844 627q-28 109 -96 166t-170 57q-144 0 -227 -93.5t-83 -256.5q0 -160 82.5 -252t224.5 -92q101 0 183.5 52t132.5 148l158 -77q-58 -143 -185 -225.5t-289 -82.5q-227 0 -368 145t-141 382q0 230 136.5 378t346.5 148q86 0 157.5 -27.5t137.5 -85.5v88h160v-372h-160z
" />
    <glyph glyph-name="d" unicode="d" horiz-adv-x="1208" 
d="M858 1255h-143v166h319v-1245h144v-176h-326v119q-82 -78 -161.5 -113t-172.5 -35q-201 0 -324.5 141t-123.5 373q0 233 123.5 373.5t324.5 140.5q95 0 176 -35.5t164 -113.5v405zM559 150q130 0 211.5 93t81.5 246q0 160 -78 250t-215 90q-138 0 -217.5 -90.5
t-79.5 -249.5q0 -157 80 -248t217 -91z" />
    <glyph glyph-name="e" unicode="e" horiz-adv-x="1120" 
d="M266 446q4 -131 89.5 -210.5t224.5 -79.5q97 0 181 46t136 130l158 -82q-77 -137 -198 -208t-279 -71q-234 0 -373 143.5t-139 383.5q0 237 138 381.5t361 144.5q231 0 358.5 -151.5t127.5 -426.5h-785zM283 594h567q-15 128 -88 196t-197 68q-123 0 -197.5 -69.5
t-84.5 -194.5z" />
    <glyph glyph-name="f" unicode="f" horiz-adv-x="555" 
d="M27 0v176h151v658h-151v165h151v107q0 178 58 259t184 81q111 0 174 -61.5t74 -180.5l-162 -22q-12 60 -29 82t-49 22q-39 0 -54.5 -37t-15.5 -147v-103h166v-165h-166v-658h166v-176h-497z" />
    <glyph glyph-name="g" unicode="g" horiz-adv-x="1208" 
d="M1032 195v-17q0 -128 -12 -197t-41 -122q-58 -106 -162 -160.5t-250 -54.5q-113 0 -212 31.5t-181 93.5l113 131q67 -54 135 -78.5t149 -24.5q140 0 209.5 74t69.5 221v64q-62 -81 -146 -121.5t-188 -40.5q-203 0 -326.5 137.5t-123.5 366.5q0 227 123.5 364t326.5 137
q96 0 176.5 -34t163.5 -111v145h320v-165h-144v-639zM557 164q131 0 212 91t81 241q0 155 -78.5 244t-214.5 89q-138 0 -217.5 -89t-79.5 -244t79.5 -243.5t217.5 -88.5z" />
    <glyph glyph-name="h" unicode="h" horiz-adv-x="1104" 
d="M176 176v1079h-143v166h323v-569q96 77 176 112t160 35q132 0 187 -73.5t55 -282.5v-467h147v-176h-327v569q0 180 -28 225.5t-99 45.5q-65 0 -130.5 -37t-140.5 -117v-510h146v-176h-469v176h143z" />
    <glyph glyph-name="i" unicode="i" horiz-adv-x="537" 
d="M360 176h148v-176h-469v176h141v658h-141v165h321v-823zM139 1305q0 48 34 82t83 34q48 0 83.5 -34.5t35.5 -81.5q0 -51 -34.5 -85t-84.5 -34t-83.5 33.5t-33.5 85.5z" />
    <glyph glyph-name="j" unicode="j" horiz-adv-x="508" 
d="M131 1305q0 47 35 81.5t84 34.5q47 0 82 -34.5t35 -81.5q0 -51 -34 -85t-83 -34q-51 0 -85 34t-34 85zM352 37v-70q0 -86 -12 -132t-39 -83q-39 -53 -99.5 -80.5t-135.5 -27.5q-27 0 -54.5 2.5t-60.5 7.5v160q5 -1 12 -1q35 -3 49 -3q89 0 124.5 36t35.5 134v854h-141
v165h321v-962z" />
    <glyph glyph-name="k" unicode="k" horiz-adv-x="1071" 
d="M729 834h-131v165h459v-165h-117l-350 -295l342 -363h143v-176h-227l-486 524zM176 1255h-143v166h323v-1245h146v-176h-469v176h143v1079z" />
    <glyph glyph-name="l" unicode="l" horiz-adv-x="537" 
d="M176 1255h-143v166h323v-1245h146v-176h-469v176h143v1079z" />
    <glyph glyph-name="m" unicode="m" horiz-adv-x="1692" 
d="M356 846q99 81 181 117t163 36q92 0 149.5 -40t80.5 -119q96 82 181.5 120.5t170.5 38.5q131 0 186.5 -75t55.5 -281v-467h145v-176h-332v662q0 90 -30.5 134t-94.5 44t-130 -37.5t-138 -116.5v-510h146v-176h-332v659q0 92 -31 136.5t-96 44.5q-64 0 -129 -37.5
t-137 -116.5v-510h145v-176h-475v176h145v658h-145v165h321v-153z" />
    <glyph glyph-name="n" unicode="n" horiz-adv-x="1110" 
d="M180 176v658h-141v165h313v-153q100 81 182.5 118t163.5 37q131 0 185.5 -73.5t54.5 -284.5v-467h147v-176h-327v569q0 178 -27.5 224.5t-99.5 46.5q-65 0 -130.5 -37t-140.5 -117v-510h148v-176h-469v176h141z" />
    <glyph glyph-name="o" unicode="o" horiz-adv-x="1133" 
d="M565 156q141 0 221 91t80 253t-79.5 253t-221.5 91q-140 0 -220.5 -91.5t-80.5 -252.5q0 -160 81 -252t220 -92zM1067 498q0 -236 -139 -381.5t-363 -145.5q-223 0 -361 145t-138 382t138 381.5t361 144.5q224 0 363 -145.5t139 -380.5z" />
    <glyph glyph-name="p" unicode="p" horiz-adv-x="1208" 
d="M649 150q138 0 217.5 90.5t79.5 248.5q0 159 -79.5 249.5t-217.5 90.5q-136 0 -214.5 -90t-78.5 -250q0 -154 81.5 -246.5t211.5 -92.5zM350 850q85 79 166 114t174 35q202 0 325.5 -140.5t123.5 -373.5q0 -232 -123.5 -373t-325.5 -141q-92 0 -171.5 35t-162.5 113v-277
h191v-174h-516v174h143v992h-143v165h319v-149z" />
    <glyph glyph-name="q" unicode="q" horiz-adv-x="1208" 
d="M1178 -158v-174h-516v174h190v277q-82 -78 -161.5 -113t-172.5 -35q-201 0 -324.5 141t-123.5 373q0 233 123.5 374.5t324.5 141.5q94 0 175 -36t165 -115v149h320v-165h-144v-992h144zM559 150q130 0 211.5 93t81.5 246q0 160 -78 250t-215 90q-138 0 -217.5 -90.5
t-79.5 -249.5q0 -157 80 -248t217 -91z" />
    <glyph glyph-name="r" unicode="r" horiz-adv-x="737" 
d="M180 176v658h-141v165h313v-196q52 114 126 164.5t192 50.5q17 0 36 -0.5t39 -1.5v-193q-1 0 -6 1q-46 3 -69 3q-161 0 -235.5 -92t-74.5 -295v-264h179v-176h-500v176h141z" />
    <glyph glyph-name="s" unicode="s" horiz-adv-x="954" 
d="M84 0v338h160q10 -98 79.5 -153.5t180.5 -55.5q86 0 140 38.5t54 98.5q0 51 -40 82t-142 55l-154 35q-147 35 -214.5 103.5t-67.5 183.5q0 127 99.5 213t248.5 86q77 0 144.5 -25.5t121.5 -74.5v75h154v-325h-154q-7 90 -77.5 144t-178.5 54q-79 0 -125.5 -35t-46.5 -94
q0 -50 37 -80t125 -49l170 -34q143 -31 213 -101.5t70 -183.5q0 -146 -100.5 -235t-266.5 -89q-81 0 -150 24.5t-120 72.5v-68h-160z" />
    <glyph glyph-name="t" unicode="t" horiz-adv-x="559" 
d="M340 276q0 -73 17.5 -99.5t62.5 -26.5q23 0 47.5 6.5t58.5 21.5v-174q-38 -16 -77.5 -24.5t-79.5 -8.5q-116 0 -162.5 55t-46.5 220v588h-131v165h131v134l180 149v-283h186v-165h-186v-558z" />
    <glyph glyph-name="u" unicode="u" horiz-adv-x="1104" 
d="M928 999v-823h143v-176h-315v127q-101 -82 -182.5 -119t-161.5 -37q-132 0 -187 74.5t-55 284.5v504h-147v165h327v-618q0 -156 28.5 -202t100.5 -46q65 0 130.5 37t140.5 117v547h-154v165h332z" />
    <glyph glyph-name="v" unicode="v" horiz-adv-x="995" 
d="M410 0l-304 834h-145v165h449v-165h-111l203 -568l219 568h-139v165h442v-165h-139l-320 -834h-155z" />
    <glyph glyph-name="w" unicode="w" horiz-adv-x="1540" 
d="M995 999v-165h-88l170 -558l183 558h-107v165h379v-165h-100l-304 -834h-143l-225 725l-242 -725h-141l-271 834h-108v165h387v-165h-88l170 -558l182 558h-106v165h452z" />
    <glyph glyph-name="x" unicode="x" horiz-adv-x="1034" 
d="M4 0v176h137l269 320l-304 338h-81v165h417v-161h-114l194 -217l183 217h-127v161h393v-165h-86l-262 -318l305 -340h88v-176h-418v172h111l-199 221l-186 -221h120v-172h-440z" />
    <glyph glyph-name="y" unicode="y" horiz-adv-x="1006" 
d="M109 -332v166h237l76 197l-320 803h-112v165h420v-165h-115l221 -558l215 558h-117v165h400v-165h-117l-448 -1166h-340z" />
    <glyph glyph-name="z" unicode="z" horiz-adv-x="979" 
d="M53 0v195l615 651h-408v-215h-166v368h791v-190l-613 -645h437v211h176v-375h-832z" />
    <glyph glyph-name="braceleft" unicode="{" 
d="M866 1327h-41q-120 0 -161 -44.5t-41 -184.5v-242q0 -160 -44.5 -228t-156.5 -98q113 -28 157 -96t44 -229v-242q0 -141 41.5 -185t162.5 -44h39v-148h-43q-108 0 -169 11.5t-103 37.5q-55 34 -77.5 97t-22.5 211v245q0 149 -54.5 210t-185.5 61q-7 0 -21.5 -1t-21.5 -1
v149q8 0 23 -1t22 -1q130 0 184 60.5t54 207.5v246q0 148 22.5 210.5t77.5 96.5q45 28 108.5 40t169.5 12h37v-150z" />
    <glyph glyph-name="bar" unicode="|" 
d="M588 1565v-2048h-150v2048h150z" />
    <glyph glyph-name="braceright" unicode="}" 
d="M575 1118v-246q0 -147 54 -207.5t184 -60.5q7 0 22 1t23 1v-149q-7 0 -22 1t-21 1q-132 0 -186 -60.5t-54 -210.5v-245q0 -148 -22.5 -211t-77.5 -97q-42 -26 -103 -37.5t-169 -11.5h-43v148h39q120 0 162 45t42 186v240q0 160 44.5 228t156.5 97q-112 30 -156.5 98
t-44.5 228v242q0 140 -42 184.5t-162 44.5h-39v150h37q107 0 171 -12.5t107 -39.5q55 -34 77.5 -96.5t22.5 -210.5z" />
    <glyph glyph-name="asciitilde" unicode="~" horiz-adv-x="1706" 
d="M1530 614q-104 -72 -199 -106.5t-190 -34.5q-93 0 -256 58q-22 8 -34 12l-15 5q-176 60 -273 60q-84 0 -175 -37t-210 -120v155q106 72 202 108t185 36q62 0 127.5 -13.5t163.5 -48.5q16 -5 47 -17q159 -57 240 -57q88 0 179.5 37t207.5 119v-156z" />
    <glyph glyph-name="Adieresis" unicode="&#xc4;" horiz-adv-x="1294" 
d="M461 676h356l-176 528zM-57 0v184h163l371 1063h-184v174h711v-174h-175l367 -1063h154v-184h-533v184h172l-110 320h-480l-108 -320h160v-184h-508zM725 1720q0 45 34.5 79t80.5 34q45 0 77.5 -33t32.5 -80q0 -49 -31.5 -81.5t-78.5 -32.5q-48 0 -81.5 33.5t-33.5 80.5z
M342 1720q0 46 33.5 79.5t78.5 33.5q47 0 80 -33t33 -80q0 -48 -32.5 -81t-80.5 -33q-47 0 -79.5 33t-32.5 81z" />
    <glyph glyph-name="Aring" unicode="&#xc5;" horiz-adv-x="1294" 
d="M406 1731q0 101 70 171t171 70q102 0 173 -70t71 -171q0 -102 -71 -173t-173 -71q-101 0 -171 71t-70 173zM524 1731q0 -51 37.5 -88t87.5 -37q51 0 87 37t36 88q0 50 -36 86t-87 36t-88 -36t-37 -86zM461 676h356l-176 528zM-57 0v184h163l371 1063h-184v174h711v-174
h-175l367 -1063h154v-184h-533v184h172l-110 320h-480l-108 -320h160v-184h-508z" />
    <glyph glyph-name="Ccedilla" unicode="&#xc7;" horiz-adv-x="1540" 
d="M1227 965q-63 145 -171 218.5t-259 73.5q-227 0 -367.5 -150.5t-140.5 -395.5q0 -244 138 -396.5t353 -152.5q172 0 309.5 111.5t196.5 299.5l176 -104q-70 -233 -251 -365.5t-429 -132.5q-313 0 -512.5 206.5t-199.5 531.5q0 323 200.5 530t511.5 207q158 0 267.5 -49.5
t191.5 -157.5v182h174v-456h-188zM512 -426v100q76 -18 141.5 -28.5t106.5 -10.5q61 0 90 20t29 62q0 43 -31.5 64.5t-93.5 21.5q-21 0 -35 -0.5t-27 -0.5v198h78v-102h29q109 0 166 -46t57 -135q0 -91 -65 -139.5t-187 -48.5q-48 0 -114 11.5t-144 33.5z" />
    <glyph glyph-name="Eacute" unicode="&#xc9;" horiz-adv-x="1300" 
d="M1030 184v271h172v-455h-1161v184h168v1063h-168v174h1161v-422h-172v248h-618v-432h553v-170h-553v-461h618zM525 1557l204 348h201l-285 -348h-120z" />
    <glyph glyph-name="Ntilde" unicode="&#xd1;" horiz-adv-x="1524" 
d="M391 1192v-1008h174v-184h-530v184h174v1063h-174v174h452l643 -1108v934h-174v174h562v-174h-205v-1247h-232zM1059 1835q-20 -102 -70.5 -155.5t-126.5 -53.5q-13 0 -29.5 2.5t-36.5 8.5l-96 26q-13 4 -25.5 6t-23.5 2q-31 0 -53.5 -17t-36.5 -50h-88q18 99 68 151.5
t125 52.5q14 0 29 -2.5t31 -7.5l97 -26q21 -6 33.5 -8.5t20.5 -2.5q33 0 56.5 18.5t37.5 55.5h88z" />
    <glyph glyph-name="Odieresis" unicode="&#xd6;" horiz-adv-x="1565" 
d="M1274 711q0 241 -138.5 392.5t-355.5 151.5q-213 0 -352 -152t-139 -392q0 -244 138 -396.5t353 -152.5q216 0 355 153t139 396zM782 1446q315 0 513 -206t198 -531t-199 -531.5t-512 -206.5t-512.5 206.5t-199.5 531.5q0 322 201 529.5t511 207.5zM860 1720
q0 45 34.5 79t80.5 34q45 0 77.5 -33t32.5 -80q0 -49 -31.5 -81.5t-78.5 -32.5q-48 0 -81.5 33.5t-33.5 80.5zM477 1720q0 46 33.5 79.5t78.5 33.5q47 0 80 -33t33 -80q0 -48 -32.5 -81t-80.5 -33q-47 0 -79.5 33t-32.5 81z" />
    <glyph glyph-name="Udieresis" unicode="&#xdc;" horiz-adv-x="1477" 
d="M199 1247h-174v174h557v-174h-172v-760q0 -168 73 -248.5t228 -80.5q157 0 233 80.5t76 248.5v760h-174v174h543v-174h-172v-659q0 -334 -118.5 -475.5t-391.5 -141.5q-272 0 -390 141t-118 476v659zM817 1720q0 45 34.5 79t80.5 34q45 0 77.5 -33t32.5 -80
q0 -49 -31.5 -81.5t-78.5 -32.5q-48 0 -81.5 33.5t-33.5 80.5zM434 1720q0 46 33.5 79.5t78.5 33.5q47 0 80 -33t33 -80q0 -48 -32.5 -81t-80.5 -33q-47 0 -79.5 33t-32.5 81z" />
    <glyph glyph-name="aacute" unicode="&#xe1;" horiz-adv-x="1051" 
d="M705 279v73q-84 50 -142 70t-114 20q-87 0 -140 -40.5t-53 -106.5q0 -60 46 -99.5t118 -39.5q60 0 129.5 30t155.5 93zM705 0v94q-78 -63 -155 -93t-163 -30q-147 0 -237.5 88t-90.5 230q0 147 97.5 237t257.5 90q55 0 125.5 -17.5t158.5 -53.5v59q0 136 -51 199t-160 63
q-77 0 -135 -31t-106 -98l-174 45q48 116 159.5 179t270.5 63q200 0 288.5 -96t88.5 -320v-432h151v-176h-325zM344 1135l204 348h201l-285 -348h-120z" />
    <glyph glyph-name="agrave" unicode="&#xe0;" horiz-adv-x="1051" 
d="M705 279v73q-84 50 -142 70t-114 20q-87 0 -140 -40.5t-53 -106.5q0 -60 46 -99.5t118 -39.5q60 0 129.5 30t155.5 93zM705 0v94q-78 -63 -155 -93t-163 -30q-147 0 -237.5 88t-90.5 230q0 147 97.5 237t257.5 90q55 0 125.5 -17.5t158.5 -53.5v59q0 136 -51 199t-160 63
q-77 0 -135 -31t-106 -98l-174 45q48 116 159.5 179t270.5 63q200 0 288.5 -96t88.5 -320v-432h151v-176h-325zM630 1135h-120l-285 348h201z" />
    <glyph glyph-name="acircumflex" unicode="&#xe2;" horiz-adv-x="1051" 
d="M705 279v73q-84 50 -142 70t-114 20q-87 0 -140 -40.5t-53 -106.5q0 -60 46 -99.5t118 -39.5q60 0 129.5 30t155.5 93zM705 0v94q-78 -63 -155 -93t-163 -30q-147 0 -237.5 88t-90.5 230q0 147 97.5 237t257.5 90q55 0 125.5 -17.5t158.5 -53.5v59q0 136 -51 199t-160 63
q-77 0 -135 -31t-106 -98l-174 45q48 116 159.5 179t270.5 63q200 0 288.5 -96t88.5 -320v-432h151v-176h-325zM192 1135l197 348h196l197 -348h-123l-172 229l-174 -229h-121z" />
    <glyph glyph-name="adieresis" unicode="&#xe4;" horiz-adv-x="1051" 
d="M705 279v73q-84 50 -142 70t-114 20q-87 0 -140 -40.5t-53 -106.5q0 -60 46 -99.5t118 -39.5q60 0 129.5 30t155.5 93zM705 0v94q-78 -63 -155 -93t-163 -30q-147 0 -237.5 88t-90.5 230q0 147 97.5 237t257.5 90q55 0 125.5 -17.5t158.5 -53.5v59q0 136 -51 199t-160 63
q-77 0 -135 -31t-106 -98l-174 45q48 116 159.5 179t270.5 63q200 0 288.5 -96t88.5 -320v-432h151v-176h-325zM565 1298q0 45 34.5 79t80.5 34q45 0 77.5 -33t32.5 -80q0 -49 -31.5 -81.5t-78.5 -32.5q-48 0 -81.5 33.5t-33.5 80.5zM182 1298q0 46 33.5 79.5t78.5 33.5
q47 0 80 -33t33 -80q0 -48 -32.5 -81t-80.5 -33q-47 0 -79.5 33t-32.5 81z" />
    <glyph glyph-name="atilde" unicode="&#xe3;" horiz-adv-x="1051" 
d="M705 279v73q-84 50 -142 70t-114 20q-87 0 -140 -40.5t-53 -106.5q0 -60 46 -99.5t118 -39.5q60 0 129.5 30t155.5 93zM705 0v94q-78 -63 -155 -93t-163 -30q-147 0 -237.5 88t-90.5 230q0 147 97.5 237t257.5 90q55 0 125.5 -17.5t158.5 -53.5v59q0 136 -51 199t-160 63
q-77 0 -135 -31t-106 -98l-174 45q48 116 159.5 179t270.5 63q200 0 288.5 -96t88.5 -320v-432h151v-176h-325zM780 1413q-20 -102 -70.5 -155.5t-126.5 -53.5q-13 0 -29.5 2.5t-36.5 8.5l-96 26q-13 4 -25.5 6t-23.5 2q-31 0 -53.5 -17t-36.5 -50h-88q18 99 68 151.5
t125 52.5q14 0 29 -2.5t31 -7.5l97 -26q21 -6 33.5 -8.5t20.5 -2.5q33 0 56.5 18.5t37.5 55.5h88z" />
    <glyph glyph-name="aring" unicode="&#xe5;" horiz-adv-x="1051" 
d="M248 1335q0 102 70 172t171 70q102 0 172 -70t70 -172q0 -101 -70.5 -172t-171.5 -71q-100 0 -170.5 71t-70.5 172zM367 1335q0 -51 36 -88t86 -37q51 0 88 37.5t37 87.5q0 51 -37 87t-88 36q-50 0 -86 -36t-36 -87zM705 279v73q-84 50 -142 70t-114 20q-87 0 -140 -40.5
t-53 -106.5q0 -60 46 -99.5t118 -39.5q60 0 129.5 30t155.5 93zM705 0v94q-78 -63 -155 -93t-163 -30q-147 0 -237.5 88t-90.5 230q0 147 97.5 237t257.5 90q55 0 125.5 -17.5t158.5 -53.5v59q0 136 -51 199t-160 63q-77 0 -135 -31t-106 -98l-174 45q48 116 159.5 179
t270.5 63q200 0 288.5 -96t88.5 -320v-432h151v-176h-325z" />
    <glyph glyph-name="ccedilla" unicode="&#xe7;" horiz-adv-x="1096" 
d="M844 627q-28 109 -96 166t-170 57q-144 0 -227 -93.5t-83 -256.5q0 -160 82.5 -252t224.5 -92q101 0 183.5 52t132.5 148l158 -77q-58 -143 -185 -225.5t-289 -82.5q-227 0 -368 145t-141 382q0 230 136.5 378t346.5 148q86 0 157.5 -27.5t137.5 -85.5v88h160v-372h-160z
M291 -426v100q76 -18 141.5 -28.5t106.5 -10.5q61 0 90 20t29 62q0 43 -31.5 64.5t-93.5 21.5q-21 0 -35 -0.5t-27 -0.5v198h78v-102h29q109 0 166 -46t57 -135q0 -91 -65 -139.5t-187 -48.5q-48 0 -114 11.5t-144 33.5z" />
    <glyph glyph-name="eacute" unicode="&#xe9;" horiz-adv-x="1120" 
d="M266 446q4 -131 89.5 -210.5t224.5 -79.5q97 0 181 46t136 130l158 -82q-77 -137 -198 -208t-279 -71q-234 0 -373 143.5t-139 383.5q0 237 138 381.5t361 144.5q231 0 358.5 -151.5t127.5 -426.5h-785zM283 594h567q-15 128 -88 196t-197 68q-123 0 -197.5 -69.5
t-84.5 -194.5zM432 1135l204 348h201l-285 -348h-120z" />
    <glyph glyph-name="egrave" unicode="&#xe8;" horiz-adv-x="1120" 
d="M266 446q4 -131 89.5 -210.5t224.5 -79.5q97 0 181 46t136 130l158 -82q-77 -137 -198 -208t-279 -71q-234 0 -373 143.5t-139 383.5q0 237 138 381.5t361 144.5q231 0 358.5 -151.5t127.5 -426.5h-785zM283 594h567q-15 128 -88 196t-197 68q-123 0 -197.5 -69.5
t-84.5 -194.5zM718 1135h-120l-285 348h201z" />
    <glyph glyph-name="ecircumflex" unicode="&#xea;" horiz-adv-x="1120" 
d="M266 446q4 -131 89.5 -210.5t224.5 -79.5q97 0 181 46t136 130l158 -82q-77 -137 -198 -208t-279 -71q-234 0 -373 143.5t-139 383.5q0 237 138 381.5t361 144.5q231 0 358.5 -151.5t127.5 -426.5h-785zM283 594h567q-15 128 -88 196t-197 68q-123 0 -197.5 -69.5
t-84.5 -194.5zM280 1135l197 348h196l197 -348h-123l-172 229l-174 -229h-121z" />
    <glyph glyph-name="edieresis" unicode="&#xeb;" horiz-adv-x="1120" 
d="M266 446q4 -131 89.5 -210.5t224.5 -79.5q97 0 181 46t136 130l158 -82q-77 -137 -198 -208t-279 -71q-234 0 -373 143.5t-139 383.5q0 237 138 381.5t361 144.5q231 0 358.5 -151.5t127.5 -426.5h-785zM283 594h567q-15 128 -88 196t-197 68q-123 0 -197.5 -69.5
t-84.5 -194.5zM653 1298q0 45 34.5 79t80.5 34q45 0 77.5 -33t32.5 -80q0 -49 -31.5 -81.5t-78.5 -32.5q-48 0 -81.5 33.5t-33.5 80.5zM270 1298q0 46 33.5 79.5t78.5 33.5q47 0 80 -33t33 -80q0 -48 -32.5 -81t-80.5 -33q-47 0 -79.5 33t-32.5 81z" />
    <glyph glyph-name="iacute" unicode="&#xed;" horiz-adv-x="537" 
d="M360 176h148v-176h-469v176h141v658h-141v165h321v-823zM99 1135l204 348h201l-285 -348h-120z" />
    <glyph glyph-name="igrave" unicode="&#xec;" horiz-adv-x="537" 
d="M360 176h148v-176h-469v176h141v658h-141v165h321v-823zM385 1135h-120l-285 348h201z" />
    <glyph glyph-name="icircumflex" unicode="&#xee;" horiz-adv-x="537" 
d="M360 176h148v-176h-469v176h141v658h-141v165h321v-823zM-53 1135l197 348h196l197 -348h-123l-172 229l-174 -229h-121z" />
    <glyph glyph-name="idieresis" unicode="&#xef;" horiz-adv-x="537" 
d="M360 176h148v-176h-469v176h141v658h-141v165h321v-823zM320 1298q0 45 34.5 79t80.5 34q45 0 77.5 -33t32.5 -80q0 -49 -31.5 -81.5t-78.5 -32.5q-48 0 -81.5 33.5t-33.5 80.5zM-63 1298q0 46 33.5 79.5t78.5 33.5q47 0 80 -33t33 -80q0 -48 -32.5 -81t-80.5 -33
q-47 0 -79.5 33t-32.5 81z" />
    <glyph glyph-name="ntilde" unicode="&#xf1;" horiz-adv-x="1110" 
d="M180 176v658h-141v165h313v-153q100 81 182.5 118t163.5 37q131 0 185.5 -73.5t54.5 -284.5v-467h147v-176h-327v569q0 178 -27.5 224.5t-99.5 46.5q-65 0 -130.5 -37t-140.5 -117v-510h148v-176h-469v176h141zM848 1413q-20 -102 -70.5 -155.5t-126.5 -53.5
q-13 0 -29.5 2.5t-36.5 8.5l-96 26q-13 4 -25.5 6t-23.5 2q-31 0 -53.5 -17t-36.5 -50h-88q18 99 68 151.5t125 52.5q14 0 29 -2.5t31 -7.5l97 -26q21 -6 33.5 -8.5t20.5 -2.5q33 0 56.5 18.5t37.5 55.5h88z" />
    <glyph glyph-name="oacute" unicode="&#xf3;" horiz-adv-x="1133" 
d="M565 156q141 0 221 91t80 253t-79.5 253t-221.5 91q-140 0 -220.5 -91.5t-80.5 -252.5q0 -160 81 -252t220 -92zM1067 498q0 -236 -139 -381.5t-363 -145.5q-223 0 -361 145t-138 382t138 381.5t361 144.5q224 0 363 -145.5t139 -380.5zM424 1135l204 348h201l-285 -348
h-120z" />
    <glyph glyph-name="ograve" unicode="&#xf2;" horiz-adv-x="1133" 
d="M565 156q141 0 221 91t80 253t-79.5 253t-221.5 91q-140 0 -220.5 -91.5t-80.5 -252.5q0 -160 81 -252t220 -92zM1067 498q0 -236 -139 -381.5t-363 -145.5q-223 0 -361 145t-138 382t138 381.5t361 144.5q224 0 363 -145.5t139 -380.5zM710 1135h-120l-285 348h201z" />
    <glyph glyph-name="ocircumflex" unicode="&#xf4;" horiz-adv-x="1133" 
d="M565 156q141 0 221 91t80 253t-79.5 253t-221.5 91q-140 0 -220.5 -91.5t-80.5 -252.5q0 -160 81 -252t220 -92zM1067 498q0 -236 -139 -381.5t-363 -145.5q-223 0 -361 145t-138 382t138 381.5t361 144.5q224 0 363 -145.5t139 -380.5zM272 1135l197 348h196l197 -348
h-123l-172 229l-174 -229h-121z" />
    <glyph glyph-name="odieresis" unicode="&#xf6;" horiz-adv-x="1133" 
d="M565 156q141 0 221 91t80 253t-79.5 253t-221.5 91q-140 0 -220.5 -91.5t-80.5 -252.5q0 -160 81 -252t220 -92zM1067 498q0 -236 -139 -381.5t-363 -145.5q-223 0 -361 145t-138 382t138 381.5t361 144.5q224 0 363 -145.5t139 -380.5zM645 1298q0 45 34.5 79t80.5 34
q45 0 77.5 -33t32.5 -80q0 -49 -31.5 -81.5t-78.5 -32.5q-48 0 -81.5 33.5t-33.5 80.5zM262 1298q0 46 33.5 79.5t78.5 33.5q47 0 80 -33t33 -80q0 -48 -32.5 -81t-80.5 -33q-47 0 -79.5 33t-32.5 81z" />
    <glyph glyph-name="otilde" unicode="&#xf5;" horiz-adv-x="1133" 
d="M565 156q141 0 221 91t80 253t-79.5 253t-221.5 91q-140 0 -220.5 -91.5t-80.5 -252.5q0 -160 81 -252t220 -92zM1067 498q0 -236 -139 -381.5t-363 -145.5q-223 0 -361 145t-138 382t138 381.5t361 144.5q224 0 363 -145.5t139 -380.5zM860 1413q-20 -102 -70.5 -155.5
t-126.5 -53.5q-13 0 -29.5 2.5t-36.5 8.5l-96 26q-13 4 -25.5 6t-23.5 2q-31 0 -53.5 -17t-36.5 -50h-88q18 99 68 151.5t125 52.5q14 0 29 -2.5t31 -7.5l97 -26q21 -6 33.5 -8.5t20.5 -2.5q33 0 56.5 18.5t37.5 55.5h88z" />
    <glyph glyph-name="uacute" unicode="&#xfa;" horiz-adv-x="1104" 
d="M928 999v-823h143v-176h-315v127q-101 -82 -182.5 -119t-161.5 -37q-132 0 -187 74.5t-55 284.5v504h-147v165h327v-618q0 -156 28.5 -202t100.5 -46q65 0 130.5 37t140.5 117v547h-154v165h332zM383 1135l204 348h201l-285 -348h-120z" />
    <glyph glyph-name="ugrave" unicode="&#xf9;" horiz-adv-x="1104" 
d="M928 999v-823h143v-176h-315v127q-101 -82 -182.5 -119t-161.5 -37q-132 0 -187 74.5t-55 284.5v504h-147v165h327v-618q0 -156 28.5 -202t100.5 -46q65 0 130.5 37t140.5 117v547h-154v165h332zM669 1135h-120l-285 348h201z" />
    <glyph glyph-name="ucircumflex" unicode="&#xfb;" horiz-adv-x="1104" 
d="M928 999v-823h143v-176h-315v127q-101 -82 -182.5 -119t-161.5 -37q-132 0 -187 74.5t-55 284.5v504h-147v165h327v-618q0 -156 28.5 -202t100.5 -46q65 0 130.5 37t140.5 117v547h-154v165h332zM231 1135l197 348h196l197 -348h-123l-172 229l-174 -229h-121z" />
    <glyph glyph-name="udieresis" unicode="&#xfc;" horiz-adv-x="1104" 
d="M928 999v-823h143v-176h-315v127q-101 -82 -182.5 -119t-161.5 -37q-132 0 -187 74.5t-55 284.5v504h-147v165h327v-618q0 -156 28.5 -202t100.5 -46q65 0 130.5 37t140.5 117v547h-154v165h332zM604 1298q0 45 34.5 79t80.5 34q45 0 77.5 -33t32.5 -80
q0 -49 -31.5 -81.5t-78.5 -32.5q-48 0 -81.5 33.5t-33.5 80.5zM221 1298q0 46 33.5 79.5t78.5 33.5q47 0 80 -33t33 -80q0 -48 -32.5 -81t-80.5 -33q-47 0 -79.5 33t-32.5 81z" />
    <glyph glyph-name="dagger" unicode="&#x2020;" horiz-adv-x="1042" 
d="M449 -238v1022h-265v-104h-114v362h114v-124h265v391h-125v112h393v-112h-123v-391h264v124h113v-362h-113v104h-264v-1022h-145z" />
    <glyph glyph-name="degree" unicode="&#xb0;" horiz-adv-x="674" 
d="M530 1169q0 81 -55.5 137t-136.5 56t-138 -56t-57 -137t57 -138.5t138 -57.5t136.5 57.5t55.5 138.5zM338 1456q118 0 202.5 -84.5t84.5 -204.5q0 -119 -84 -202.5t-205 -83.5t-204 83t-83 203t84.5 204.5t204.5 84.5z" />
    <glyph glyph-name="cent" unicode="&#xa2;" horiz-adv-x="1014" 
d="M791 639q-23 74 -57.5 122.5t-86.5 80.5l-214 -664q29 -7 55 -10.5t49 -3.5q90 0 171.5 54.5t129.5 148.5l135 -70q-54 -141 -175.5 -222t-279.5 -81q-33 0 -67 6t-70 18l-92 -282h-119l104 325q-112 60 -171.5 175.5t-59.5 273.5q0 225 126.5 370.5t319.5 145.5
q28 0 90 -7q7 -1 11 -1l84 260h112l-94 -299q27 -18 77 -56l9 -8v89h152v-365h-139zM332 231l209 639h-21q-133 0 -218 -100t-85 -258q0 -98 29.5 -170t85.5 -111z" />
    <glyph glyph-name="sterling" unicode="&#xa3;" horiz-adv-x="1014" 
d="M346 190q-36 35 -68 51.5t-63 16.5q-35 0 -57.5 -20.5t-22.5 -53.5t25.5 -55.5t62.5 -22.5t67 20.5t56 63.5zM47 631v155h209q-41 97 -60.5 173t-19.5 135q0 161 101 256.5t272 95.5q170 0 263 -94t93 -267v-30h-180q0 118 -44 177.5t-130 59.5q-81 0 -126.5 -45.5
t-45.5 -126.5q0 -53 20.5 -131.5t67.5 -202.5h258v-155h-205q10 -56 15.5 -104t5.5 -85q0 -48 -7 -92t-22 -88q69 -45 117.5 -65.5t87.5 -20.5q66 0 100.5 47.5t34.5 138.5v17l127 -1q-2 -204 -64.5 -303.5t-189.5 -99.5q-71 0 -137 30t-137 95q-56 -69 -110 -100t-118 -31
q-89 0 -149 60.5t-60 150.5q0 87 58 141t151 54q43 0 78.5 -10.5t71.5 -32.5v26q0 64 -12.5 131t-38.5 142h-275z" />
    <glyph glyph-name="section" unicode="&#xa7;" horiz-adv-x="1042" 
d="M698 322q46 0 78.5 32.5t32.5 77.5q0 51 -41.5 114t-142.5 163q-105 103 -166 142.5t-109 39.5q-46 0 -78 -32.5t-32 -78.5q0 -51 40.5 -113t141.5 -161q105 -104 167 -144t109 -40zM856 676q58 -61 86.5 -117t28.5 -108q0 -99 -75.5 -167.5t-193.5 -74.5
q48 -50 71.5 -103t23.5 -114q0 -117 -77.5 -173.5t-238.5 -56.5h-268v312h125v-203h119q103 0 144.5 29t41.5 98q0 41 -21 80t-69 88l-369 373q-56 56 -85 114t-29 113q0 101 80 170.5t200 69.5h4q-36 42 -53.5 88.5t-17.5 99.5q0 117 77 173t238 56h242v-311h-123v203h-94
q-104 0 -145.5 -29t-41.5 -98q0 -40 19.5 -77.5t70.5 -90.5z" />
    <glyph glyph-name="bullet" unicode="&#x2022;" horiz-adv-x="1208" 
d="M307 762q0 123 87 209t210 86q122 0 208.5 -86.5t86.5 -208.5t-87.5 -209.5t-209.5 -87.5q-123 0 -209 87t-86 210z" />
    <glyph glyph-name="paragraph" unicode="&#xb6;" 
d="M958 1393h-120v-1393h-111v1393h-176v-1393h-113v782q-170 8 -271 102.5t-101 245.5q0 157 107.5 253t285.5 96h499v-86z" />
    <glyph glyph-name="germandbls" unicode="&#xdf;" horiz-adv-x="1102" 
d="M162 1049q0 206 86 301.5t270 95.5q158 0 254 -84.5t96 -222.5q0 -87 -46.5 -144t-143.5 -90q160 -11 252 -126t92 -306q0 -212 -112.5 -347.5t-286.5 -135.5q-13 0 -51 2q-17 1 -27 2v180h28q125 0 187.5 75.5t62.5 225.5q0 152 -77 227.5t-234 75.5h-31v172
q102 5 155.5 49t53.5 123q0 76 -47.5 120t-130.5 44q-90 0 -129 -56.5t-39 -193.5v-860h111v-176h-445v176h152v873z" />
    <glyph glyph-name="registered" unicode="&#xae;" horiz-adv-x="1706" 
d="M844 1057h-129v-277h133q113 0 162 31.5t49 101.5q0 76 -51 110t-164 34zM872 1159q174 0 261.5 -57.5t87.5 -171.5q0 -89 -50 -148t-141 -77l187 -381h-177l-170 356h-155v-356h-158v835h315zM1493 721q0 134 -46.5 251t-135.5 206q-92 93 -208.5 141.5t-248.5 48.5
q-130 0 -245 -47t-201 -135q-94 -95 -144.5 -214t-50.5 -245q0 -125 48.5 -240.5t139.5 -207.5q90 -92 206.5 -141.5t240.5 -49.5q130 0 246.5 48t212.5 140q90 88 138 202.5t48 242.5zM852 1464q151 0 286 -56t240 -163q103 -104 158 -238t55 -280q0 -151 -55 -283.5
t-160 -234.5q-109 -106 -244.5 -162.5t-279.5 -56.5q-147 0 -280.5 56.5t-239.5 164.5q-105 106 -160 238.5t-55 277.5q0 146 57.5 282.5t165.5 245.5q101 103 231.5 156t280.5 53z" />
    <glyph glyph-name="copyright" unicode="&#xa9;" horiz-adv-x="1706" 
d="M1053 907q-13 77 -66 118.5t-139 41.5q-105 0 -165 -90.5t-60 -249.5q0 -157 62 -244.5t173 -87.5q82 0 136.5 47t68.5 129h145q-9 -130 -107.5 -211t-248.5 -81q-182 0 -285.5 120t-103.5 334q0 200 109 322.5t286 122.5q142 0 236.5 -75t105.5 -196h-147zM1493 727
q0 130 -47.5 246.5t-136.5 206.5q-93 92 -209 140t-246 48q-129 0 -243.5 -47t-204.5 -137q-93 -93 -143 -211.5t-50 -245.5q0 -126 49 -242t141 -209q92 -91 207.5 -139.5t243.5 -48.5q125 0 242 49t213 142q90 88 137 202.5t47 245.5zM852 1464q152 0 285.5 -54.5
t238.5 -160.5q104 -103 159.5 -238.5t55.5 -283.5q0 -149 -54.5 -281.5t-158.5 -234.5q-110 -107 -245.5 -164t-280.5 -57t-278.5 56t-239.5 163q-106 105 -161.5 238.5t-55.5 279.5q0 147 56 281.5t163 242.5q104 104 236 158.5t280 54.5z" />
    <glyph glyph-name="trademark" unicode="&#x2122;" horiz-adv-x="1706" 
d="M963 1458l151 -385l141 385h150v-538h-98v444l-166 -444h-56l-174 444v-444h-98v538h150zM694 1458v-80h-172v-458h-108v458h-172v80h452z" />
    <glyph glyph-name="acute" unicode="&#xb4;" 
d="M369 1135l204 348h201l-285 -348h-120z" />
    <glyph glyph-name="dieresis" unicode="&#xa8;" 
d="M590 1298q0 45 34.5 79t80.5 34q45 0 77.5 -33t32.5 -80q0 -49 -31.5 -81.5t-78.5 -32.5q-48 0 -81.5 33.5t-33.5 80.5zM207 1298q0 46 33.5 79.5t78.5 33.5q47 0 80 -33t33 -80q0 -48 -32.5 -81t-80.5 -33q-47 0 -79.5 33t-32.5 81z" />
    <glyph glyph-name="notequal" unicode="&#x2260;" horiz-adv-x="1706" 
d="M1313 1112l-187 -235h326v-136h-416l-205 -262h621v-135h-709l-249 -317l-105 84l184 233h-319v135h408l204 262h-612v136h702l252 317z" />
    <glyph glyph-name="AE" unicode="&#xc6;" horiz-adv-x="1939" 
d="M713 0v184h219v463h-414l-246 -463h156v-184h-520v184h160l569 1063h-201v174h1403v-422h-170v248h-534v-430h467v-170h-467v-463h534v271h170v-455h-1126zM610 817h322v445h-88z" />
    <glyph glyph-name="Oslash" unicode="&#xd8;" horiz-adv-x="1565" 
d="M473 276q65 -58 141 -86t166 -28q215 0 354.5 153t139.5 396q0 108 -26 193.5t-81 158.5zM375 387l688 780q-66 45 -136 66.5t-147 21.5q-213 0 -352 -152t-139 -392q0 -107 20.5 -184.5t65.5 -139.5zM229 229q-82 102 -120.5 218.5t-38.5 261.5q0 325 202 531t521 206
q122 0 223.5 -31t183.5 -94l133 152l109 -97l-135 -151q95 -111 140.5 -236.5t45.5 -279.5q0 -325 -199 -531.5t-512 -206.5q-134 0 -243.5 37t-202.5 113l-143 -166l-115 102z" />
    <glyph glyph-name="infinity" unicode="&#x221e;" horiz-adv-x="1706" 
d="M915 559q49 -88 116 -133t151 -45q101 0 165 67.5t64 172.5q0 101 -59 168t-148 67q-82 0 -148.5 -67.5t-140.5 -229.5zM793 666q-49 88 -115.5 132t-151.5 44q-102 0 -165.5 -66t-63.5 -172q0 -101 59 -168t148 -67q82 0 149 68t140 229zM864 483
q-70 -135 -148.5 -198.5t-172.5 -63.5q-136 0 -229 111.5t-93 277.5q0 175 83.5 283t217.5 108q95 0 171.5 -63t148.5 -201q68 138 147 203.5t176 65.5q134 0 228 -112.5t94 -279.5q0 -175 -83.5 -282t-217.5 -107q-94 0 -168.5 59.5t-153.5 198.5z" />
    <glyph glyph-name="plusminus" unicode="&#xb1;" horiz-adv-x="1706" 
d="M1452 170v-141h-1198v141h1198zM924 1192v-340h528v-139h-528v-340h-142v340h-528v139h528v340h142z" />
    <glyph glyph-name="lessequal" unicode="&#x2264;" horiz-adv-x="1706" 
d="M1446 162v-139h-1184v139h1184zM1444 1059l-936 -309l936 -306v-149l-1182 395v121l1182 395v-147z" />
    <glyph glyph-name="greaterequal" unicode="&#x2265;" horiz-adv-x="1706" 
d="M1446 162v-139h-1184v139h1184zM1446 811v-121l-1184 -395v149l938 306l-938 309v147z" />
    <glyph glyph-name="yen" unicode="&#xa5;" horiz-adv-x="1141" 
d="M285 0v184h186v451h-436v115h373l-101 151h-272v113h198l-151 233h-172v174h555v-178h-158l277 -434l284 434h-184v178h545v-174h-174l-154 -233h203v-113h-279l-100 -151h379v-115h-442v-451h186v-184h-563z" />
    <glyph glyph-name="mu" unicode="&#xb5;" horiz-adv-x="1151" 
d="M385 1071l-129 -600q-7 -32 -10.5 -64.5t-3.5 -68.5q0 -99 52 -153t148 -54q132 0 208.5 92.5t123.5 311.5l115 536h178l-156 -732q-1 -6 -4 -20q-18 -87 -18 -112q0 -37 16.5 -52.5t55.5 -15.5q12 0 18.5 0.5t13.5 1.5l-31 -143q-24 -5 -50 -7.5t-58 -2.5q-63 0 -97 29
t-52 100q-45 -66 -112.5 -98.5t-158.5 -32.5q-82 0 -143 27.5t-113 88.5l-110 -530h-181l318 1499h180z" />
    <glyph glyph-name="partialdiff" unicode="&#x2202;" horiz-adv-x="1059" 
d="M756 621q15 87 22.5 168.5t7.5 156.5q0 129 -36.5 194.5t-108.5 65.5q-55 0 -127 -58t-108 -58t-60 22t-24 53q0 62 72 111t173 49q180 0 287 -155t107 -418q0 -335 -144.5 -556t-357.5 -221q-152 0 -253.5 108t-101.5 271q0 198 110.5 326.5t272.5 128.5
q101 0 166 -45.5t103 -142.5zM707 494q0 116 -43.5 178.5t-122.5 62.5q-109 0 -179.5 -129t-70.5 -336q0 -116 43 -177.5t123 -61.5q109 0 179.5 130t70.5 333z" />
    <glyph glyph-name="summation" unicode="&#x2211;" horiz-adv-x="1380" 
d="M55 1473h1258v-193h-959l672 -717l-694 -764h1007v-192h-1314v149l725 801l-695 739v177z" />
    <glyph glyph-name="product" unicode="&#x220f;" horiz-adv-x="1550" 
d="M156 1473h1237v-1866h-240v1661h-758v-1661h-239v1866z" />
    <glyph glyph-name="pi" unicode="&#x3c0;" horiz-adv-x="1206" 
d="M1159 913h-182l-105 -487q-15 -74 -22.5 -120t-7.5 -68q0 -58 23.5 -82.5t78.5 -24.5q17 0 40 2.5t60 7.5l-30 -141q-30 -8 -57.5 -12t-53.5 -4q-118 0 -178.5 51t-60.5 151q0 46 10.5 118t44.5 233l80 376h-326l-194 -913h-181l195 913h-41q-54 0 -84 -32t-39 -101h-160
q28 166 99.5 228.5t236.5 62.5h889z" />
    <glyph glyph-name="integral" unicode="&#x222b;" horiz-adv-x="1067" 
d="M311 -262q106 0 120 688l3 165q12 515 107 737t297 222q80 0 130 -42t50 -107q0 -54 -32 -85.5t-87 -31.5q-42 0 -70 19t-40 54q-6 15 -10.5 51t-20.5 36q-107 0 -121 -619q-4 -193 -8 -303q-17 -479 -111.5 -686t-290.5 -207q-79 0 -129.5 41.5t-50.5 106.5
q0 56 34 87.5t95 31.5q33 0 57 -14.5t39 -42.5q10 -18 15 -59.5t24 -41.5z" />
    <glyph glyph-name="ordfeminine" unicode="&#xaa;" horiz-adv-x="788" 
d="M528 918v51q-65 36 -107.5 49.5t-84.5 13.5q-64 0 -103.5 -28.5t-39.5 -73.5q0 -43 34.5 -71t87.5 -28q45 0 96 21t117 66zM528 723v65q-58 -44 -115.5 -65t-121.5 -21q-111 0 -178.5 62t-67.5 162q0 103 73.5 166t192.5 63q40 0 93 -12.5t120 -38.5v43q0 94 -38 138
t-119 44q-58 0 -102 -21.5t-81 -68.5l-131 31q37 82 121 126t203 44q150 0 216 -67.5t66 -223.5v-303h113v-123h-244z" />
    <glyph glyph-name="ordmasculine" unicode="&#xba;" horiz-adv-x="850" 
d="M424 831q106 0 165.5 64t59.5 178q0 113 -59.5 176.5t-165.5 63.5t-165.5 -63.5t-59.5 -176.5q0 -112 60.5 -177t164.5 -65zM801 1071q0 -164 -105 -266.5t-272 -102.5q-168 0 -271.5 101.5t-103.5 267.5t103.5 267.5t271.5 101.5q167 0 272 -102t105 -267z" />
    <glyph glyph-name="Omega" unicode="&#x3a9;" horiz-adv-x="1565" 
d="M1487 178v-178h-600v178q177 97 276 263t99 368q0 240 -132 385t-348 145t-348.5 -145.5t-132.5 -384.5q0 -202 99.5 -368t277.5 -263v-178h-600v178h319q-158 139 -230.5 288t-72.5 333q0 318 191.5 515t496.5 197q303 0 495.5 -196.5t192.5 -505.5q0 -194 -71 -342
t-232 -289h320z" />
    <glyph glyph-name="ae" unicode="&#xe6;" horiz-adv-x="1698" 
d="M831 879q69 71 155 108t183 37q217 0 337 -151.5t120 -426.5h-737q0 -129 81 -208.5t212 -79.5q94 0 171 45t128 129l149 -82q-75 -141 -188.5 -210t-272.5 -69q-120 0 -217 51t-166 150q-84 -102 -180.5 -151.5t-210.5 -49.5q-147 0 -238 88t-91 230q0 147 97 237
t257 90q55 0 125.5 -17.5t159.5 -53.5v59q0 136 -51 199t-160 63q-77 0 -135.5 -31t-106.5 -98l-172 45q47 115 158.5 178.5t267.5 63.5q117 0 199.5 -37t125.5 -108zM897 594h530q-13 128 -81.5 196t-184.5 68t-185.5 -70t-78.5 -194zM711 276v76q-89 53 -145 71.5
t-111 18.5q-86 0 -138.5 -40.5t-52.5 -106.5q0 -61 46.5 -99t121.5 -38q77 0 146.5 29.5t132.5 88.5z" />
    <glyph glyph-name="oslash" unicode="&#xf8;" horiz-adv-x="1133" 
d="M975 823q46 -67 69 -148t23 -177q0 -237 -138.5 -382t-363.5 -145q-100 0 -183 31t-159 96l-135 -129l-72 90l134 127q-43 67 -63.5 143.5t-20.5 168.5q0 236 138 381t361 145q99 0 179.5 -28.5t152.5 -88.5l117 115l80 -82zM295 326l467 452q-41 34 -88.5 50t-108.5 16
q-140 0 -220.5 -91.5t-80.5 -252.5q0 -47 8 -91t23 -83zM831 684l-469 -453q48 -39 96.5 -57t106.5 -18q141 0 222 91.5t81 252.5q0 60 -8.5 103.5t-28.5 80.5z" />
    <glyph glyph-name="questiondown" unicode="&#xbf;" horiz-adv-x="958" 
d="M625 573q-27 9 -42.5 12t-27.5 3q-130 0 -203 -63.5t-73 -176.5q0 -96 62.5 -157.5t162.5 -61.5q104 0 163.5 68t59.5 188v23h184v-25q0 -190 -111 -301t-300 -111q-180 0 -297 107t-117 268q0 169 101 273.5t284 123.5l18 271h113zM659 1417v-252h-227v252h227z" />
    <glyph glyph-name="exclamdown" unicode="&#xa1;" horiz-adv-x="563" 
d="M334 1038l43 -587v-451h-191v451l43 587h105zM395 1421v-250h-227v250h227z" />
    <glyph glyph-name="logicalnot" unicode="&#xac;" horiz-adv-x="1706" 
d="M1452 860v-502h-137v363h-1061v139h1198z" />
    <glyph glyph-name="radical" unicode="&#x221a;" horiz-adv-x="1305" 
d="M1116 1661h189v-96h-115l-594 -1606h-66l-319 883l-125 -45l-25 80l283 98l256 -709z" />
    <glyph glyph-name="florin" unicode="&#x192;" horiz-adv-x="1014" 
d="M930 1313q-31 18 -57.5 26.5t-51.5 8.5q-57 0 -92.5 -46.5t-52.5 -144.5l-39 -223h201v-166h-230l-63 -389l-7 -42q-106 -644 -356 -644q-42 0 -84.5 8.5t-89.5 26.5l33 170q36 -21 62.5 -30t50.5 -9q118 0 171 334l1 4l94 571h-225v166h241l47 229q37 188 109.5 271.5
t195.5 83.5q34 0 76 -10.5t99 -32.5z" />
    <glyph glyph-name="approxequal" unicode="&#x2248;" horiz-adv-x="1706" 
d="M1530 430q-105 -73 -199.5 -107t-189.5 -34t-285 67.5t-293 67.5q-82 0 -171.5 -36t-213.5 -122v156q108 73 204 109t183 36q115 0 305 -68.5t273 -68.5q88 0 177 35.5t210 120.5v-156zM1530 799q-105 -73 -199.5 -107.5t-189.5 -34.5t-285 68t-293 68q-83 0 -171.5 -36
t-213.5 -122v156q106 72 202 107.5t185 35.5q116 0 305.5 -67.5t272.5 -67.5q87 0 175 34.5t212 120.5v-155z" />
    <glyph glyph-name="Delta" unicode="&#x2206;" horiz-adv-x="1370" 
d="M684 1262l-418 -1084h836zM573 1473h224l579 -1473h-1382z" />
    <glyph glyph-name="guillemotleft" unicode="&#xab;" horiz-adv-x="901" 
d="M840 817l-258 -311l258 -313h-181l-262 313l262 311h181zM508 817l-258 -311l258 -313h-180l-262 313l262 311h180z" />
    <glyph glyph-name="guillemotright" unicode="&#xbb;" horiz-adv-x="901" 
d="M393 193l258 313l-258 311h180l263 -311l-263 -313h-180zM61 193l258 313l-258 311h181l262 -311l-262 -313h-181z" />
    <glyph glyph-name="ellipsis" unicode="&#x2026;" horiz-adv-x="2048" 
d="M223 0v252h238v-252h-238zM905 0v252h238v-252h-238zM1589 0v252h238v-252h-238z" />
    <glyph glyph-name="nonbreakingspace" unicode="&#xa0;" horiz-adv-x="1014" 
 />
    <glyph glyph-name="Agrave" unicode="&#xc0;" horiz-adv-x="1294" 
d="M461 676h356l-176 528zM-57 0v184h163l371 1063h-184v174h711v-174h-175l367 -1063h154v-184h-533v184h172l-110 320h-480l-108 -320h160v-184h-508zM790 1557h-120l-285 348h201z" />
    <glyph glyph-name="Atilde" unicode="&#xc3;" horiz-adv-x="1294" 
d="M461 676h356l-176 528zM-57 0v184h163l371 1063h-184v174h711v-174h-175l367 -1063h154v-184h-533v184h172l-110 320h-480l-108 -320h160v-184h-508zM940 1835q-20 -102 -70.5 -155.5t-126.5 -53.5q-13 0 -29.5 2.5t-36.5 8.5l-96 26q-13 4 -25.5 6t-23.5 2
q-31 0 -53.5 -17t-36.5 -50h-88q18 99 68 151.5t125 52.5q14 0 29 -2.5t31 -7.5l97 -26q21 -6 33.5 -8.5t20.5 -2.5q33 0 56.5 18.5t37.5 55.5h88z" />
    <glyph glyph-name="Otilde" unicode="&#xd5;" horiz-adv-x="1565" 
d="M1274 711q0 241 -138.5 392.5t-355.5 151.5q-213 0 -352 -152t-139 -392q0 -244 138 -396.5t353 -152.5q216 0 355 153t139 396zM782 1446q315 0 513 -206t198 -531t-199 -531.5t-512 -206.5t-512.5 206.5t-199.5 531.5q0 322 201 529.5t511 207.5zM1075 1835
q-20 -102 -70.5 -155.5t-126.5 -53.5q-13 0 -29.5 2.5t-36.5 8.5l-96 26q-13 4 -25.5 6t-23.5 2q-31 0 -53.5 -17t-36.5 -50h-88q18 99 68 151.5t125 52.5q14 0 29 -2.5t31 -7.5l97 -26q21 -6 33.5 -8.5t20.5 -2.5q33 0 56.5 18.5t37.5 55.5h88z" />
    <glyph glyph-name="OE" unicode="&#x152;" horiz-adv-x="2068" 
d="M932 0q-213 0 -329 19t-193 63q-154 85 -241 252t-87 377q0 211 84.5 371.5t245.5 252.5q80 46 191.5 66t328.5 20h1048v-422h-170v248h-573v-432h506v-170h-506v-461h573v271h170v-455h-1048zM932 1253q-170 0 -252.5 -16.5t-147.5 -54.5q-115 -70 -174 -187t-59 -278
q0 -162 58.5 -281t172.5 -188q62 -38 145.5 -54t256.5 -16h102v1075h-102z" />
    <glyph glyph-name="oe" unicode="&#x153;" horiz-adv-x="1901" 
d="M965 158q-69 -91 -171 -139t-225 -48q-221 0 -357 145t-136 382t135.5 381.5t357.5 144.5q129 0 226 -47t170 -143q67 95 165 142.5t226 47.5q225 0 350 -151.5t125 -426.5h-770q3 -130 87.5 -210t219.5 -80q96 0 178 46t133 130l154 -82q-75 -140 -194 -209.5
t-283 -69.5q-122 0 -217.5 45.5t-173.5 141.5zM1080 594h548q-14 128 -84.5 196t-189.5 68q-120 0 -192.5 -69.5t-81.5 -194.5zM569 156q140 0 219.5 91.5t79.5 252.5t-79 252.5t-220 91.5q-139 0 -218 -91.5t-79 -252.5q0 -160 80 -252t217 -92z" />
    <glyph glyph-name="endash" unicode="&#x2013;" 
d="M1024 584v-148h-1024v148h1024z" />
    <glyph glyph-name="emdash" unicode="&#x2014;" horiz-adv-x="2048" 
d="M0 436v148h2048v-148h-2048z" />
    <glyph glyph-name="quotedblleft" unicode="&#x201c;" horiz-adv-x="895" 
d="M743 1161v-252h-229v252q0 136 58 206.5t176 78.5v-115q-64 -13 -87.5 -42t-23.5 -95v-33h106zM369 1161v-252h-230v252q0 136 58 206.5t176 78.5v-115q-64 -13 -87.5 -42t-23.5 -95v-33h107z" />
    <glyph glyph-name="quotedblright" unicode="&#x201d;" horiz-adv-x="895" 
d="M530 1171v250h230v-250q0 -135 -59 -207t-177 -79v114q64 14 88.5 44.5t24.5 97.5v30h-107zM156 1171v250h229v-250q0 -135 -59 -207t-176 -79v114q63 14 87.5 44.5t24.5 97.5v30h-106z" />
    <glyph glyph-name="quoteleft" unicode="&#x2018;" horiz-adv-x="508" 
d="M362 1161v-252h-231v252q0 135 58.5 206t177.5 79v-115q-64 -13 -87.5 -42t-23.5 -95v-33h106z" />
    <glyph glyph-name="quoteright" unicode="&#x2019;" horiz-adv-x="508" 
d="M147 1171v250h230v-250q0 -136 -58 -207.5t-176 -78.5v114q63 14 87 43.5t24 96.5v32h-107z" />
    <glyph glyph-name="divide" unicode="&#xf7;" horiz-adv-x="1706" 
d="M854 367q51 0 88 -37t37 -88q0 -52 -36.5 -88.5t-88.5 -36.5q-53 0 -89 36t-36 89q0 51 37 88t88 37zM1452 680v-139h-1198v139h1198zM854 1106q51 0 88 -37.5t37 -89.5q0 -51 -36.5 -88t-88.5 -37t-88.5 36.5t-36.5 88.5t37 89.5t88 37.5z" />
    <glyph glyph-name="lozenge" unicode="&#x25ca;" horiz-adv-x="1012" 
d="M506 1409l-385 -817l385 -825l385 825zM506 1653l500 -1061l-500 -1069l-500 1069z" />
    <glyph glyph-name="ydieresis" unicode="&#xff;" horiz-adv-x="1006" 
d="M109 -332v166h237l76 197l-320 803h-112v165h420v-165h-115l221 -558l215 558h-117v165h400v-165h-117l-448 -1166h-340zM582 1298q0 45 34.5 79t80.5 34q45 0 77.5 -33t32.5 -80q0 -49 -31.5 -81.5t-78.5 -32.5q-48 0 -81.5 33.5t-33.5 80.5zM199 1298q0 46 33.5 79.5
t78.5 33.5q47 0 80 -33t33 -80q0 -48 -32.5 -81t-80.5 -33q-47 0 -79.5 33t-32.5 81z" />
    <glyph glyph-name="Ydieresis" unicode="&#x178;" horiz-adv-x="1110" 
d="M59 1247h-172v174h566v-174h-154l268 -422l277 422h-178v174h555v-174h-174l-394 -596v-467h185v-184h-576v184h187v467zM633 1720q0 45 34.5 79t80.5 34q45 0 77.5 -33t32.5 -80q0 -49 -31.5 -81.5t-78.5 -32.5q-48 0 -81.5 33.5t-33.5 80.5zM250 1720q0 46 33.5 79.5
t78.5 33.5q47 0 80 -33t33 -80q0 -48 -32.5 -81t-80.5 -33q-47 0 -79.5 33t-32.5 81z" />
    <glyph glyph-name="fraction" unicode="&#x2215;" horiz-adv-x="342" 
d="M-342 -29l887 1475h137l-887 -1475h-137z" />
    <glyph glyph-name="currency" unicode="&#xa4;" horiz-adv-x="1014" 
d="M979 379q-46 -201 -151.5 -304.5t-264.5 -103.5q-188 0 -301.5 143.5t-142.5 417.5h-119l23 113h87q-1 15 -1 26v38q0 28 2 71q1 12 2 19h-113l23 112h98q33 261 145.5 398t292.5 137q77 0 143.5 -39.5t106.5 -108.5v127h147v-401h-147q-20 112 -87.5 191t-148.5 79
q-107 0 -172 -96t-88 -287h500l-39 -112l-469 -1q-1 -18 -1.5 -34t-0.5 -53v-66h420l-37 -113h-375q21 -198 85 -294.5t175 -96.5q87 0 143 73t85 222z" />
    <glyph glyph-name="guilsinglleft" unicode="&#x2039;" horiz-adv-x="569" 
d="M508 817l-258 -311l258 -313h-180l-262 313l262 311h180z" />
    <glyph glyph-name="guilsinglright" unicode="&#x203a;" horiz-adv-x="569" 
d="M61 193l258 313l-258 311h181l260 -311l-260 -313h-181z" />
    <glyph glyph-name="fi" unicode="&#xf001;" horiz-adv-x="1110" 
d="M711 1305q0 47 35 81.5t83 34.5t82.5 -34.5t34.5 -81.5q0 -51 -33.5 -85t-83.5 -34t-84 34t-34 85zM27 0v176h151v658h-151v165h151v107q0 178 58 259t184 81q111 0 174 -61.5t74 -180.5l-162 -22q-12 60 -29 82t-49 22q-39 0 -54.5 -37t-15.5 -147v-103h576v-823h145
v-176h-469v176h144v658h-396v-658h166v-176h-497z" />
    <glyph glyph-name="fl" unicode="&#xf002;" horiz-adv-x="1110" 
d="M27 0v176h151v658h-151v165h151v107q0 181 59.5 260.5t192.5 79.5q40 0 80 -7t84 -22l344 4v-1245h147v-176h-471v176h144v1086h-193q-29 18 -55 27t-49 9q-58 0 -80.5 -41t-22.5 -161v-97h166v-165h-166v-658h166v-176h-497z" />
    <glyph glyph-name="daggerdbl" unicode="&#x2021;" horiz-adv-x="1042" 
d="M594 319h264v125h113v-360h-113v102h-264v-309h123v-115h-393v115h125v309h-265v-102h-114v360h114v-125h265v549h-265v-104h-114v362h114v-125h265v308h-125v112h393v-112h-123v-308h264v125h113v-362h-113v104h-264v-549z" />
    <glyph glyph-name="periodcentered" unicode="&#xb7;" horiz-adv-x="508" 
d="M123 707q0 52 39.5 91.5t91.5 39.5t90.5 -39.5t38.5 -91.5q0 -56 -37 -92.5t-92 -36.5q-56 0 -93.5 37t-37.5 92z" />
    <glyph glyph-name="quotesinglbase" unicode="&#x201a;" horiz-adv-x="508" 
d="M127 0v252h231v-252q0 -135 -58.5 -206t-176.5 -79v113q64 14 88.5 44.5t24.5 96.5v31h-109z" />
    <glyph glyph-name="quotedblbase" unicode="&#x201e;" horiz-adv-x="895" 
d="M510 0v252h229v-252q0 -136 -57.5 -206.5t-175.5 -78.5v113q63 13 86.5 43t23.5 96v33h-106zM135 0v252h230v-252q0 -136 -58 -206.5t-176 -78.5v113q63 13 87 43t24 96v33h-107z" />
    <glyph glyph-name="perthousand" unicode="&#x2030;" horiz-adv-x="2120" 
d="M1786 100q60 0 96.5 77t36.5 206q0 131 -36.5 208t-96.5 77q-61 0 -97 -77t-36 -208q0 -129 37 -206t96 -77zM1786 -29q-126 0 -201.5 111t-75.5 301q0 191 75 302.5t202 111.5q125 0 200.5 -112t75.5 -302t-75 -301t-201 -111zM332 621q-126 0 -202.5 112t-76.5 301
q0 190 76 301t203 111q125 0 200.5 -111t75.5 -301t-75.5 -301.5t-200.5 -111.5zM1126 -29q-126 0 -201 111t-75 301q0 191 75 302.5t201 111.5t201.5 -112t75.5 -302t-75.5 -301t-201.5 -111zM1126 100q60 0 97 77t37 206q0 131 -36.5 208t-97.5 77q-60 0 -96.5 -77
t-36.5 -208q0 -129 37 -206t96 -77zM330 750q59 0 96 77.5t37 206.5q0 131 -36.5 207t-96.5 76t-95.5 -75.5t-35.5 -207.5q0 -130 36 -207t95 -77zM1233 1446l-868 -1475h-140l869 1475h139z" />
    <glyph glyph-name="Acircumflex" unicode="&#xc2;" horiz-adv-x="1294" 
d="M461 676h356l-176 528zM-57 0v184h163l371 1063h-184v174h711v-174h-175l367 -1063h154v-184h-533v184h172l-110 320h-480l-108 -320h160v-184h-508zM352 1557l197 348h196l197 -348h-123l-172 229l-174 -229h-121z" />
    <glyph glyph-name="Ecircumflex" unicode="&#xca;" horiz-adv-x="1300" 
d="M1030 184v271h172v-455h-1161v184h168v1063h-168v174h1161v-422h-172v248h-618v-432h553v-170h-553v-461h618zM373 1557l197 348h196l197 -348h-123l-172 229l-174 -229h-121z" />
    <glyph glyph-name="Aacute" unicode="&#xc1;" horiz-adv-x="1294" 
d="M461 676h356l-176 528zM-57 0v184h163l371 1063h-184v174h711v-174h-175l367 -1063h154v-184h-533v184h172l-110 320h-480l-108 -320h160v-184h-508zM504 1557l204 348h201l-285 -348h-120z" />
    <glyph glyph-name="Edieresis" unicode="&#xcb;" horiz-adv-x="1300" 
d="M1030 184v271h172v-455h-1161v184h168v1063h-168v174h1161v-422h-172v248h-618v-432h553v-170h-553v-461h618zM746 1720q0 45 34.5 79t80.5 34q45 0 77.5 -33t32.5 -80q0 -49 -31.5 -81.5t-78.5 -32.5q-48 0 -81.5 33.5t-33.5 80.5zM363 1720q0 46 33.5 79.5t78.5 33.5
q47 0 80 -33t33 -80q0 -48 -32.5 -81t-80.5 -33q-47 0 -79.5 33t-32.5 81z" />
    <glyph glyph-name="Egrave" unicode="&#xc8;" horiz-adv-x="1300" 
d="M1030 184v271h172v-455h-1161v184h168v1063h-168v174h1161v-422h-172v248h-618v-432h553v-170h-553v-461h618zM811 1557h-120l-285 348h201z" />
    <glyph glyph-name="Iacute" unicode="&#xcd;" horiz-adv-x="621" 
d="M582 1421v-174h-170v-1063h170v-184h-541v184h168v1063h-168v174h541zM168 1557l204 348h201l-285 -348h-120z" />
    <glyph glyph-name="Icircumflex" unicode="&#xce;" horiz-adv-x="621" 
d="M582 1421v-174h-170v-1063h170v-184h-541v184h168v1063h-168v174h541zM16 1557l197 348h196l197 -348h-123l-172 229l-174 -229h-121z" />
    <glyph glyph-name="Idieresis" unicode="&#xcf;" horiz-adv-x="621" 
d="M582 1421v-174h-170v-1063h170v-184h-541v184h168v1063h-168v174h541zM389 1720q0 45 34.5 79t80.5 34q45 0 77.5 -33t32.5 -80q0 -49 -31.5 -81.5t-78.5 -32.5q-48 0 -81.5 33.5t-33.5 80.5zM6 1720q0 46 33.5 79.5t78.5 33.5q47 0 80 -33t33 -80q0 -48 -32.5 -81
t-80.5 -33q-47 0 -79.5 33t-32.5 81z" />
    <glyph glyph-name="Igrave" unicode="&#xcc;" horiz-adv-x="621" 
d="M582 1421v-174h-170v-1063h170v-184h-541v184h168v1063h-168v174h541zM454 1557h-120l-285 348h201z" />
    <glyph glyph-name="Oacute" unicode="&#xd3;" horiz-adv-x="1565" 
d="M1274 711q0 241 -138.5 392.5t-355.5 151.5q-213 0 -352 -152t-139 -392q0 -244 138 -396.5t353 -152.5q216 0 355 153t139 396zM782 1446q315 0 513 -206t198 -531t-199 -531.5t-512 -206.5t-512.5 206.5t-199.5 531.5q0 322 201 529.5t511 207.5zM639 1557l204 348h201
l-285 -348h-120z" />
    <glyph glyph-name="Ocircumflex" unicode="&#xd4;" horiz-adv-x="1565" 
d="M1274 711q0 241 -138.5 392.5t-355.5 151.5q-213 0 -352 -152t-139 -392q0 -244 138 -396.5t353 -152.5q216 0 355 153t139 396zM782 1446q315 0 513 -206t198 -531t-199 -531.5t-512 -206.5t-512.5 206.5t-199.5 531.5q0 322 201 529.5t511 207.5zM487 1557l197 348h196
l197 -348h-123l-172 229l-174 -229h-121z" />
    <glyph glyph-name="apple" unicode="&#xf000;" horiz-adv-x="1618" 
d="M836 1216q-1 6 -1.5 14t-0.5 23q0 124 95 229.5t236 131.5q1 -10 1.5 -23t0.5 -39q0 -131 -103.5 -234.5t-203.5 -103.5h-8q-3 0 -7.5 1t-8.5 1zM1505 403q-114 -247 -205 -342.5t-204 -95.5q-50 0 -131.5 33t-122.5 33q-45 0 -131 -33t-127 -33q-64 0 -128.5 44
t-129.5 132q-102 140 -157.5 295.5t-55.5 300.5q0 219 125 356.5t323 137.5q68 0 155 -34t124 -34q34 0 121.5 35t152.5 35q110 0 198 -40t161 -124q-102 -65 -151.5 -145.5t-49.5 -182.5q0 -113 60 -200t173 -138z" />
    <glyph glyph-name="Ograve" unicode="&#xd2;" horiz-adv-x="1565" 
d="M1274 711q0 241 -138.5 392.5t-355.5 151.5q-213 0 -352 -152t-139 -392q0 -244 138 -396.5t353 -152.5q216 0 355 153t139 396zM782 1446q315 0 513 -206t198 -531t-199 -531.5t-512 -206.5t-512.5 206.5t-199.5 531.5q0 322 201 529.5t511 207.5zM925 1557h-120
l-285 348h201z" />
    <glyph glyph-name="Uacute" unicode="&#xda;" horiz-adv-x="1477" 
d="M199 1247h-174v174h557v-174h-172v-760q0 -168 73 -248.5t228 -80.5q157 0 233 80.5t76 248.5v760h-174v174h543v-174h-172v-659q0 -334 -118.5 -475.5t-391.5 -141.5q-272 0 -390 141t-118 476v659zM596 1557l204 348h201l-285 -348h-120z" />
    <glyph glyph-name="Ucircumflex" unicode="&#xdb;" horiz-adv-x="1477" 
d="M199 1247h-174v174h557v-174h-172v-760q0 -168 73 -248.5t228 -80.5q157 0 233 80.5t76 248.5v760h-174v174h543v-174h-172v-659q0 -334 -118.5 -475.5t-391.5 -141.5q-272 0 -390 141t-118 476v659zM444 1557l197 348h196l197 -348h-123l-172 229l-174 -229h-121z" />
    <glyph glyph-name="Ugrave" unicode="&#xd9;" horiz-adv-x="1477" 
d="M199 1247h-174v174h557v-174h-172v-760q0 -168 73 -248.5t228 -80.5q157 0 233 80.5t76 248.5v760h-174v174h543v-174h-172v-659q0 -334 -118.5 -475.5t-391.5 -141.5q-272 0 -390 141t-118 476v659zM882 1557h-120l-285 348h201z" />
    <glyph glyph-name="dotlessi" unicode="&#x131;" horiz-adv-x="537" 
d="M360 176h148v-176h-469v176h141v658h-141v165h321v-823z" />
    <glyph glyph-name="circumflex" unicode="&#x2c6;" 
d="M217 1135l197 348h196l197 -348h-123l-172 229l-174 -229h-121z" />
    <glyph glyph-name="tilde" unicode="&#x2dc;" 
d="M805 1413q-20 -102 -70.5 -155.5t-126.5 -53.5q-13 0 -29.5 2.5t-36.5 8.5l-96 26q-13 4 -25.5 6t-23.5 2q-31 0 -53.5 -17t-36.5 -50h-88q18 99 68 151.5t125 52.5q14 0 29 -2.5t31 -7.5l97 -26q21 -6 33.5 -8.5t20.5 -2.5q33 0 56.5 18.5t37.5 55.5h88z" />
    <glyph glyph-name="macron" unicode="&#xaf;" 
d="M242 1229v139h540v-139h-540z" />
    <glyph glyph-name="breve" unicode="&#x2d8;" 
d="M221 1448h109q6 -73 49.5 -106t132.5 -33t133.5 34t49.5 105h108q-11 -146 -80.5 -212.5t-210.5 -66.5q-140 0 -210 67.5t-81 211.5z" />
    <glyph glyph-name="dotaccent" unicode="&#x2d9;" 
d="M395 1298q0 48 35 83.5t82 35.5q48 0 83.5 -35.5t35.5 -83.5q0 -50 -34 -84t-85 -34q-50 0 -83.5 33.5t-33.5 84.5z" />
    <glyph glyph-name="ring" unicode="&#x2da;" 
d="M377 1368q0 -57 39 -96t96 -39q56 0 95.5 39.5t39.5 95.5q0 55 -40 95t-95 40q-56 0 -95.5 -39.5t-39.5 -95.5zM260 1370q0 106 73 179t179 73t180 -73t74 -179t-74 -180t-180 -74t-179 74t-73 180z" />
    <glyph glyph-name="cedilla" unicode="&#xb8;" 
d="M254 -426v100q76 -18 141.5 -28.5t106.5 -10.5q61 0 90 20t29 62q0 43 -31.5 64.5t-93.5 21.5q-21 0 -35 -0.5t-27 -0.5v198h78v-102h29q109 0 166 -46t57 -135q0 -91 -65 -139.5t-187 -48.5q-48 0 -114 11.5t-144 33.5z" />
    <glyph glyph-name="hungarumlaut" unicode="&#x2dd;" 
d="M569 1135l166 350h176l-245 -350h-97zM311 1135l138 350h178l-219 -350h-97z" />
    <glyph glyph-name="ogonek" unicode="&#x2db;" 
d="M664 0q-69 -55 -101.5 -105.5t-32.5 -99.5q0 -40 21 -55.5t74 -15.5h71v-166h-86q-113 0 -169 42t-56 126q0 64 41.5 126t144.5 148h93z" />
    <glyph glyph-name="caron" unicode="&#x2c7;" 
d="M217 1483h121l174 -228l172 228h123l-197 -348h-196z" />
    <glyph glyph-name="Lslash" unicode="&#x141;" horiz-adv-x="1219" 
d="M590 1421v-174h-168v-424l299 203v-172l-299 -205v-465h512v482h170v-666h-1055v184h168v373l-213 -141v172l213 143v516h-168v174h541z" />
    <glyph glyph-name="lslash" unicode="&#x142;" horiz-adv-x="555" 
d="M184 604l-184 -125v144l184 125v507h-141v166h322v-590l184 125v-143l-184 -125v-512h147v-176h-469v176h141v428z" />
    <glyph glyph-name="Scaron" unicode="&#x160;" horiz-adv-x="1124" 
d="M104 0v487h181v-127q54 -101 133.5 -153.5t177.5 -52.5q104 0 168.5 62t64.5 161q0 85 -47 146t-137 91l-252 84q-144 49 -217.5 140.5t-73.5 222.5q0 167 111.5 276t282.5 109q89 0 168.5 -30.5t142.5 -88.5v94h166v-407h-168v104q-61 74 -136 114t-155 40
q-96 0 -154.5 -53t-58.5 -140q0 -76 41 -122.5t137 -79.5l246 -86q156 -55 232.5 -154.5t76.5 -249.5q0 -189 -118.5 -302.5t-317.5 -113.5q-90 0 -167 29.5t-146 89.5v-90h-181zM268 1905h121l174 -228l172 228h123l-197 -348h-196z" />
    <glyph glyph-name="scaron" unicode="&#x161;" horiz-adv-x="954" 
d="M84 0v338h160q10 -98 79.5 -153.5t180.5 -55.5q86 0 140 38.5t54 98.5q0 51 -40 82t-142 55l-154 35q-147 35 -214.5 103.5t-67.5 183.5q0 127 99.5 213t248.5 86q77 0 144.5 -25.5t121.5 -74.5v75h154v-325h-154q-7 90 -77.5 144t-178.5 54q-79 0 -125.5 -35t-46.5 -94
q0 -50 37 -80t125 -49l170 -34q143 -31 213 -101.5t70 -183.5q0 -146 -100.5 -235t-266.5 -89q-81 0 -150 24.5t-120 72.5v-68h-160zM182 1483h121l174 -228l172 228h123l-197 -348h-196z" />
    <glyph glyph-name="Zcaron" unicode="&#x17d;" horiz-adv-x="1114" 
d="M43 0v180l723 1067h-512v-248h-170v422h934v-174l-725 -1067h584v266h172v-446h-1006zM262 1905h121l174 -228l172 228h123l-197 -348h-196z" />
    <glyph glyph-name="zcaron" unicode="&#x17e;" horiz-adv-x="979" 
d="M53 0v195l615 651h-408v-215h-166v368h791v-190l-613 -645h437v211h176v-375h-832zM194 1483h121l174 -228l172 228h123l-197 -348h-196z" />
    <glyph glyph-name="brokenbar" unicode="&#xa6;" 
d="M588 408v-758h-150v758h150zM588 1432v-758h-150v758h150z" />
    <glyph glyph-name="Eth" unicode="&#xd0;" horiz-adv-x="1473" 
d="M698 0h-655v184h172v500h-215v156h215v407h-172v174h655q334 0 518.5 -186.5t184.5 -523.5q0 -338 -184.5 -524.5t-518.5 -186.5zM420 186h260q245 0 370.5 134.5t125.5 396.5q0 254 -121.5 392t-345.5 138h-289v-407h334v-156h-334v-498z" />
    <glyph glyph-name="eth" unicode="&#xf0;" horiz-adv-x="1133" 
d="M565 156q139 0 220 86t81 235q0 151 -80.5 237.5t-220.5 86.5t-220.5 -86.5t-80.5 -237.5q0 -149 81.5 -235t219.5 -86zM676 950l-92 150l-342 -109l-27 94l315 101l-55 94h-168v141h281l108 -180l303 98l31 -96l-280 -90l133 -211q107 -167 145.5 -272t38.5 -209
q0 -214 -141 -352t-361 -138q-223 0 -361 139t-138 365q0 221 133 360.5t342 139.5q34 0 67 -6t68 -19z" />
    <glyph glyph-name="Yacute" unicode="&#xdd;" horiz-adv-x="1110" 
d="M59 1247h-172v174h566v-174h-154l268 -422l277 422h-178v174h555v-174h-174l-394 -596v-467h185v-184h-576v184h187v467zM412 1557l204 348h201l-285 -348h-120z" />
    <glyph glyph-name="yacute" unicode="&#xfd;" horiz-adv-x="1006" 
d="M109 -332v166h237l76 197l-320 803h-112v165h420v-165h-115l221 -558l215 558h-117v165h400v-165h-117l-448 -1166h-340zM361 1135l204 348h201l-285 -348h-120z" />
    <glyph glyph-name="Thorn" unicode="&#xde;" horiz-adv-x="1231" 
d="M412 479h170q186 0 272 58.5t86 185.5q0 125 -86.5 183.5t-271.5 58.5h-170v-486zM412 1141h200q277 0 411 -102t134 -312q0 -209 -135.5 -313.5t-409.5 -104.5h-200v-125h170v-184h-541v184h168v1063h-168v174h541v-174h-170v-106z" />
    <glyph glyph-name="thorn" unicode="&#xfe;" horiz-adv-x="1208" 
d="M649 150q138 0 217.5 90.5t79.5 248.5q0 159 -79.5 249.5t-217.5 90.5q-136 0 -214.5 -90t-78.5 -250q0 -154 81.5 -246.5t211.5 -92.5zM174 1255h-143v166h325v-567q84 78 164 112.5t170 34.5q201 0 325 -141.5t124 -374.5q0 -232 -123.5 -373t-325.5 -141
q-92 0 -171.5 35t-162.5 113v-277h191v-174h-516v174h143v1413z" />
    <glyph glyph-name="minus" unicode="&#x2212;" horiz-adv-x="1706" 
d="M1452 682v-141h-1198v141h1198z" />
    <glyph glyph-name="multiply" unicode="&#xd7;" horiz-adv-x="1706" 
d="M860 709l469 469l98 -99l-469 -469l469 -469l-98 -96l-469 467l-469 -467l-98 96l469 469l-469 469l98 99z" />
    <glyph glyph-name="onesuperior" unicode="&#xb9;" horiz-adv-x="670" 
d="M158 567v107h123v641h-123v104h248v-745h116v-107h-364z" />
    <glyph glyph-name="twosuperior" unicode="&#xb2;" horiz-adv-x="670" 
d="M33 567v11q0 92 32.5 168.5t96.5 132.5q45 42 118.5 92t88.5 61q52 41 73 78.5t21 87.5q0 63 -38.5 101t-100.5 38q-80 0 -117 -55.5t-39 -177.5h-119v35q0 140 76 218.5t211 78.5q117 0 188.5 -65.5t71.5 -172.5q0 -48 -15.5 -89t-45.5 -77q-52 -58 -168 -129
q-41 -26 -60 -39q-69 -52 -103 -98t-38 -92h319v194h117v-301h-569z" />
    <glyph glyph-name="threesuperior" unicode="&#xb3;" horiz-adv-x="670" 
d="M244 967v100h22q96 0 146.5 37t50.5 106q0 61 -37.5 96t-101.5 35q-74 0 -109 -43t-35 -133v-4h-117v21q0 117 69.5 185.5t189.5 68.5q121 0 194.5 -61t73.5 -161q0 -69 -37 -117.5t-111 -74.5q90 -29 131 -81t41 -136q0 -116 -80 -185t-215 -69q-132 0 -207 77t-75 214
v10h121v-4q0 -96 45 -150.5t123 -54.5q71 0 118.5 45t47.5 115q0 81 -55.5 123.5t-160.5 42.5q-6 0 -16 -1t-16 -1z" />
    <glyph glyph-name="onequarter" unicode="&#xbc;" horiz-adv-x="1620" 
d="M1354 313l6 363l-254 -363h248zM1253 0v98h101v127h-307q-4 28 -15 49t-33 39l351 496h110v-496h127v-88h-127v-127h88v-98h-295zM297 -29l887 1475h137l-887 -1475h-137zM150 623v98h116v600h-116v98h237v-698h111v-98h-348z" />
    <glyph glyph-name="onehalf" unicode="&#xbd;" horiz-adv-x="1620" 
d="M1012 0v10q0 86 31 157t92 124q43 39 113.5 86.5t82.5 56.5q51 38 70.5 72.5t19.5 83.5q0 59 -35.5 94t-95.5 35q-76 0 -112 -52.5t-38 -164.5h-112v30q0 132 72 204.5t203 72.5q111 0 179 -60.5t68 -160.5q0 -44 -14.5 -82.5t-44.5 -71.5q-49 -52 -155 -118
q-41 -26 -60 -40q-66 -46 -99.5 -90t-37.5 -87l305 -1v183h110v-281h-542zM297 -29l887 1475h137l-887 -1475h-137zM150 623v98h116v600h-116v98h237v-698h111v-98h-348z" />
    <glyph glyph-name="threequarters" unicode="&#xbe;" horiz-adv-x="1620" 
d="M1354 313l6 363l-254 -363h248zM1253 0v98h101v127h-307q-4 28 -15 49t-33 39l351 496h110v-496h127v-88h-127v-127h88v-98h-295zM297 -29l887 1475h137l-887 -1475h-137zM233 995v92h21q91 0 139.5 35t48.5 101q0 56 -35.5 89.5t-97.5 33.5q-69 0 -103 -40.5t-34 -123.5
v-6h-111v20q0 110 66 173t180 63q116 0 186 -56.5t70 -148.5q0 -65 -35 -110.5t-104 -69.5q85 -28 124.5 -76.5t39.5 -124.5q0 -108 -78 -174t-205 -66q-125 0 -196.5 72.5t-71.5 200.5v8h115v-2q0 -90 42.5 -140.5t116.5 -50.5q69 0 113.5 41.5t44.5 106.5
q0 76 -52.5 115.5t-152.5 39.5q-6 0 -16 -1t-15 -1z" />
    <glyph glyph-name="franc" unicode="&#x20a3;" horiz-adv-x="1894" 
d="M41 0v184h168v1063h-168v174h1079v-422h-170v248h-538v-432h475v-170h-475v-461h186v-184h-557zM1337 176v658h-141v165h313v-196q52 114 126 164.5t192 50.5q17 0 36 -0.5t39 -1.5v-193q-1 0 -6 1q-46 3 -69 3q-161 0 -235.5 -92t-74.5 -295v-264h179v-176h-500v176h141
z" />
    <glyph glyph-name="Gbreve" unicode="&#x11e;" horiz-adv-x="1561" 
d="M1235 965q-63 145 -171.5 218.5t-260.5 73.5q-229 0 -371.5 -150.5t-142.5 -395.5q0 -252 144.5 -400.5t387.5 -148.5q188 0 305 93t134 257h-261v176h487q2 -11 2.5 -23.5t0.5 -35.5q0 -301 -190.5 -479.5t-510.5 -178.5q-316 0 -516 206.5t-200 531.5q0 323 202 530
t514 207q159 0 270.5 -50t190.5 -157v182h172v-456h-186zM489 1870h109q6 -73 49.5 -106t132.5 -33t133.5 34t49.5 105h108q-11 -146 -80.5 -212.5t-210.5 -66.5q-140 0 -210 67.5t-81 211.5z" />
    <glyph glyph-name="gbreve" unicode="&#x11f;" horiz-adv-x="1208" 
d="M1032 195v-17q0 -128 -12 -197t-41 -122q-58 -106 -162 -160.5t-250 -54.5q-113 0 -212 31.5t-181 93.5l113 131q67 -54 135 -78.5t149 -24.5q140 0 209.5 74t69.5 221v64q-62 -81 -146 -121.5t-188 -40.5q-203 0 -326.5 137.5t-123.5 366.5q0 227 123.5 364t326.5 137
q96 0 176.5 -34t163.5 -111v145h320v-165h-144v-639zM557 164q131 0 212 91t81 241q0 155 -78.5 244t-214.5 89q-138 0 -217.5 -89t-79.5 -244t79.5 -243.5t217.5 -88.5zM313 1448h109q6 -73 49.5 -106t132.5 -33t133.5 34t49.5 105h108q-11 -146 -80.5 -212.5t-210.5 -66.5
q-140 0 -210 67.5t-81 211.5z" />
    <glyph glyph-name="Idotaccent" unicode="&#x130;" horiz-adv-x="621" 
d="M582 1421v-174h-170v-1063h170v-184h-541v184h168v1063h-168v174h541zM194 1720q0 48 35 83.5t82 35.5q48 0 83.5 -35.5t35.5 -83.5q0 -50 -34 -84t-85 -34q-50 0 -83.5 33.5t-33.5 84.5z" />
    <glyph glyph-name="Scedilla" unicode="&#x15e;" horiz-adv-x="1124" 
d="M104 0v487h181v-127q54 -101 133.5 -153.5t177.5 -52.5q104 0 168.5 62t64.5 161q0 85 -47 146t-137 91l-252 84q-144 49 -217.5 140.5t-73.5 222.5q0 167 111.5 276t282.5 109q89 0 168.5 -30.5t142.5 -88.5v94h166v-407h-168v104q-61 74 -136 114t-155 40
q-96 0 -154.5 -53t-58.5 -140q0 -76 41 -122.5t137 -79.5l246 -86q156 -55 232.5 -154.5t76.5 -249.5q0 -189 -118.5 -302.5t-317.5 -113.5q-90 0 -167 29.5t-146 89.5v-90h-181zM305 -426v100q76 -18 141.5 -28.5t106.5 -10.5q61 0 90 20t29 62q0 43 -31.5 64.5t-93.5 21.5
q-21 0 -35 -0.5t-27 -0.5v198h78v-102h29q109 0 166 -46t57 -135q0 -91 -65 -139.5t-187 -48.5q-48 0 -114 11.5t-144 33.5z" />
    <glyph glyph-name="scedilla" unicode="&#x15f;" horiz-adv-x="954" 
d="M84 0v338h160q10 -98 79.5 -153.5t180.5 -55.5q86 0 140 38.5t54 98.5q0 51 -40 82t-142 55l-154 35q-147 35 -214.5 103.5t-67.5 183.5q0 127 99.5 213t248.5 86q77 0 144.5 -25.5t121.5 -74.5v75h154v-325h-154q-7 90 -77.5 144t-178.5 54q-79 0 -125.5 -35t-46.5 -94
q0 -50 37 -80t125 -49l170 -34q143 -31 213 -101.5t70 -183.5q0 -146 -100.5 -235t-266.5 -89q-81 0 -150 24.5t-120 72.5v-68h-160zM219 -426v100q76 -18 141.5 -28.5t106.5 -10.5q61 0 90 20t29 62q0 43 -31.5 64.5t-93.5 21.5q-21 0 -35 -0.5t-27 -0.5v198h78v-102h29
q109 0 166 -46t57 -135q0 -91 -65 -139.5t-187 -48.5q-48 0 -114 11.5t-144 33.5z" />
    <glyph glyph-name="Cacute" unicode="&#x106;" horiz-adv-x="1540" 
d="M1227 965q-63 145 -171 218.5t-259 73.5q-227 0 -367.5 -150.5t-140.5 -395.5q0 -244 138 -396.5t353 -152.5q172 0 309.5 111.5t196.5 299.5l176 -104q-70 -233 -251 -365.5t-429 -132.5q-313 0 -512.5 206.5t-199.5 531.5q0 323 200.5 530t511.5 207q158 0 267.5 -49.5
t191.5 -157.5v182h174v-456h-188zM627 1557l204 348h201l-285 -348h-120z" />
    <glyph glyph-name="cacute" unicode="&#x107;" horiz-adv-x="1096" 
d="M844 627q-28 109 -96 166t-170 57q-144 0 -227 -93.5t-83 -256.5q0 -160 82.5 -252t224.5 -92q101 0 183.5 52t132.5 148l158 -77q-58 -143 -185 -225.5t-289 -82.5q-227 0 -368 145t-141 382q0 230 136.5 378t346.5 148q86 0 157.5 -27.5t137.5 -85.5v88h160v-372h-160z
M398 1135l204 348h201l-285 -348h-120z" />
    <glyph glyph-name="Ccaron" unicode="&#x10c;" horiz-adv-x="1540" 
d="M1227 965q-63 145 -171 218.5t-259 73.5q-227 0 -367.5 -150.5t-140.5 -395.5q0 -244 138 -396.5t353 -152.5q172 0 309.5 111.5t196.5 299.5l176 -104q-70 -233 -251 -365.5t-429 -132.5q-313 0 -512.5 206.5t-199.5 531.5q0 323 200.5 530t511.5 207q158 0 267.5 -49.5
t191.5 -157.5v182h174v-456h-188zM475 1905h121l174 -228l172 228h123l-197 -348h-196z" />
    <glyph glyph-name="ccaron" unicode="&#x10d;" horiz-adv-x="1096" 
d="M844 627q-28 109 -96 166t-170 57q-144 0 -227 -93.5t-83 -256.5q0 -160 82.5 -252t224.5 -92q101 0 183.5 52t132.5 148l158 -77q-58 -143 -185 -225.5t-289 -82.5q-227 0 -368 145t-141 382q0 230 136.5 378t346.5 148q86 0 157.5 -27.5t137.5 -85.5v88h160v-372h-160z
M246 1483h121l174 -228l172 228h123l-197 -348h-196z" />
    <glyph glyph-name="dcroat" unicode="&#x111;" horiz-adv-x="1214" 
d="M858 825v250h-319v125h319v78h-143v143h319v-221h176v-125h-176v-899h144v-176h-326v119q-83 -78 -161.5 -113t-172.5 -35q-199 0 -324.5 139.5t-125.5 362.5q0 222 126 362t324 140q95 0 176 -35.5t164 -114.5zM553 150q132 0 215.5 90t83.5 235q0 150 -79.5 239
t-213.5 89q-135 0 -216 -89.5t-81 -238.5q0 -146 81 -235.5t210 -89.5z" />
    <glyph glyph-name="sfthyphen" unicode="&#xad;" horiz-adv-x="668" 
d="M86 422v176h498v-176h-498z" />
    <glyph glyph-name="periodcentered" unicode="&#x2219;" horiz-adv-x="508" 
d="M123 707q0 52 39.5 91.5t91.5 39.5t90.5 -39.5t38.5 -91.5q0 -56 -37 -92.5t-92 -36.5q-56 0 -93.5 37t-37.5 92z" />
    <glyph glyph-name="euro" horiz-adv-x="1014" 
d="M979 379q-46 -201 -151.5 -304.5t-264.5 -103.5q-188 0 -301.5 143.5t-142.5 417.5h-119l23 113h87q-1 15 -1 26v38q0 28 2 71q1 12 2 19h-113l23 112h98q33 261 145.5 398t292.5 137q77 0 143.5 -39.5t106.5 -108.5v127h147v-401h-147q-20 112 -87.5 191t-148.5 79
q-107 0 -172 -96t-88 -287h500l-39 -112l-469 -1q-1 -18 -1.5 -34t-0.5 -53v-66h420l-37 -113h-375q21 -198 85 -294.5t175 -96.5q87 0 143 73t85 222z" />
    <glyph glyph-name="euro" unicode="&#x20ac;" horiz-adv-x="1014" 
d="M979 379q-46 -201 -151.5 -304.5t-264.5 -103.5q-188 0 -301.5 143.5t-142.5 417.5h-119l23 113h87q-1 15 -1 26v38q0 28 2 71q1 12 2 19h-113l23 112h98q33 261 145.5 398t292.5 137q77 0 143.5 -39.5t106.5 -108.5v127h147v-401h-147q-20 112 -87.5 191t-148.5 79
q-107 0 -172 -96t-88 -287h500l-39 -112l-469 -1q-1 -18 -1.5 -34t-0.5 -53v-66h420l-37 -113h-375q21 -198 85 -294.5t175 -96.5q87 0 143 73t85 222z" />
    </font>
</defs>
</svg>
